<?xml version="1.0" encoding="iso-8859-1"?>
<!-- Generator: Adobe Illustrator 16.0.0, SVG Export Plug-In . SVG Version: 6.00 Build 0)  -->
<!DOCTYPE svg PUBLIC "-//W3C//DTD SVG 1.1//EN" "http://www.w3.org/Graphics/SVG/1.1/DTD/svg11.dtd">
<svg version="1.1" id="Capa_1" xmlns="http://www.w3.org/2000/svg" xmlns:xlink="http://www.w3.org/1999/xlink" x="0px" y="0px"
	 width="393.846px" height="393.846px" viewBox="0 0 393.846 393.846" style="enable-background:new 0 0 393.846 393.846;"
	 xml:space="preserve">
<g>
	<g>
		<path style="fill:#304B71;" d="M196.914,393.831c-27.492,0-52.769-16.143-64.647-40.724c-7.682,2.716-15.665,4.082-23.81,4.082
			c-19.181,0-37.21-7.462-50.77-21.036C38.236,316.7,31.79,287.39,40.795,261.596C16.179,249.731,0.006,224.435,0,196.914
			c0-27.51,16.168-52.797,40.79-64.665c-9.017-25.812-2.57-55.127,16.885-74.569c13.561-13.554,31.595-21.025,50.771-21.025
			c8.168,0,16.156,1.369,23.821,4.088c11.879-24.587,37.15-40.729,64.647-40.729c27.495,0,52.769,16.136,64.651,40.718
			c7.673-2.719,15.655-4.089,23.821-4.089c19.189,0,37.224,7.471,50.787,21.045c19.447,19.45,25.891,48.761,16.879,74.566
			c24.622,11.873,40.793,37.155,40.793,64.665c-0.012,27.509-16.193,52.8-40.804,64.665c9.017,25.799,2.573,55.115-16.892,74.58
			c-13.562,13.562-31.598,21.03-50.77,21.03c-8.172,0-16.165-1.372-23.815-4.088C249.672,377.683,224.403,393.831,196.914,393.831z
			 M138.631,337.702l2.213,5.759c8.877,23.124,31.406,38.659,56.07,38.659c24.659,0,47.199-15.535,56.074-38.671l2.219-5.77
			l5.648,2.533c7.788,3.499,16.039,5.267,24.525,5.267c16.05,0,31.135-6.25,42.49-17.601c17.451-17.451,22.392-44.389,12.282-67.032
			l-2.521-5.638l5.77-2.213c23.146-8.88,38.711-31.415,38.733-56.088c0-24.662-15.564-47.199-38.711-56.077l-5.77-2.207l2.521-5.638
			c10.093-22.643,5.158-49.575-12.282-67.021c-11.344-11.354-26.445-17.611-42.507-17.611c-8.48,0-16.731,1.775-24.542,5.269
			l-5.644,2.53l-2.219-5.772c-8.88-23.123-31.409-38.656-56.068-38.656c-24.665,0-47.193,15.539-56.07,38.668l-2.213,5.772
			l-5.644-2.53c-7.805-3.494-16.062-5.264-24.542-5.264c-16.054,0-31.143,6.25-42.491,17.595
			c-17.449,17.439-22.383,44.372-12.285,67.021l2.513,5.638l-5.767,2.207c-23.152,8.877-38.705,31.415-38.705,56.083
			c0.005,24.679,15.564,47.225,38.711,56.094l5.767,2.207l-2.513,5.644c-10.092,22.638-5.152,49.569,12.291,67.021
			c11.348,11.351,26.438,17.601,42.491,17.601c8.457,0,16.711-1.778,24.536-5.255L138.631,337.702z M196.92,362.639
			c-20.979,0-38.694-16.468-40.326-37.51l-0.211-2.688l34.148-34.125c0.475-0.469,0.903-0.972,1.341-1.476l5.018-5.649l5.166,5.735
			c0.415,0.469,0.832,0.949,1.275,1.39l34.128,34.125l-0.206,2.688C235.628,346.159,217.914,362.639,196.92,362.639z
			 M168.584,326.81c2.313,13.724,14.295,24.119,28.33,24.119c14.047,0,26.025-10.407,28.342-24.13l-28.33-28.321L168.584,326.81z
			 M285.598,325.575c-9.863,0-19.27-3.362-26.509-9.48l-2.075-1.762v-48.26c0-0.617-0.046-1.235-0.08-1.853l-0.412-7.731l7.571,0.43
			c0.663,0.045,1.326,0.097,2.001,0.097h48.248l1.756,2.053c13.718,16.039,12.837,40.215-1.995,55.036
			C306.703,321.492,296.57,325.575,285.598,325.575z M268.724,308.741c4.804,3.316,10.693,5.123,16.874,5.123
			c7.736,0,15.102-2.928,20.225-8.039c9.927-9.921,11.036-25.754,2.974-37.099h-40.072V308.741z M108.259,325.575
			c-10.979,0-21.096-4.071-28.499-11.471c-14.824-14.844-15.71-39.02-2.007-55.041l1.75-2.048h48.277
			c0.621,0,1.229-0.052,1.844-0.091l7.716-0.4l-0.415,7.639c-0.04,0.629-0.095,1.27-0.095,1.91v48.26l-2.072,1.762
			C127.518,322.201,118.108,325.575,108.259,325.575z M85.05,268.727c-8.051,11.333-6.927,27.16,2.991,37.099
			c5.112,5.1,12.477,8.039,20.213,8.039c6.164,0,12.062-1.812,16.862-5.123v-40.015H85.05z M156.302,294.978v-28.904
			c0.005-6.188,1.503-12.282,4.449-18.138l0.649-1.286l1.178-0.841c5.112-3.659,9.626-8.103,13.42-13.209l13.9-18.721l-3.408,23.066
			c-0.929,6.284-0.877,12.626,0.151,18.835l0.24,1.424l-0.449,1.367c-2.05,6.215-5.306,11.584-9.675,15.965L156.302,294.978z
			 M168.013,266.073v0.646l0.455-0.452c2.765-2.773,4.915-6.158,6.384-10.081c-0.229-1.572-0.4-3.145-0.523-4.729
			c-1.198,1.035-2.433,2.024-3.705,2.974C168.896,258.251,168.019,262.162,168.013,266.073L168.013,266.073z M237.532,294.972
			l-20.425-20.424c-4.368-4.381-7.622-9.75-9.669-15.965l-0.458-1.367l0.24-1.424c1.029-6.215,1.081-12.562,0.149-18.863
			l-3.402-23.096l13.9,18.756c3.763,5.083,8.273,9.525,13.403,13.208l1.166,0.847l0.641,1.281c2.95,5.849,4.454,11.956,4.454,18.16
			V294.972z M219,256.187c1.481,3.923,3.625,7.313,6.393,10.087l0.43,0.429v-0.629c0-3.923-0.875-7.846-2.607-11.665
			c-1.264-0.943-2.493-1.927-3.688-2.95C219.4,253.036,219.229,254.614,219,256.187z M294.964,237.54h-28.876
			c-6.204,0-12.311-1.498-18.166-4.46l-1.298-0.64l-0.841-1.179c-3.625-5.077-8.039-9.571-13.117-13.356l-18.537-13.815L237,207.418
			c7.365,1.075,12.237,0.927,18.876-0.172l1.435-0.24l1.373,0.458c6.169,2.059,11.493,5.301,15.85,9.651L294.964,237.54z
			 M254.418,223.211c3.819,1.732,7.742,2.607,11.67,2.607h0.612l-0.435-0.435c-2.757-2.744-6.107-4.883-9.984-6.358
			c-1.623,0.24-3.213,0.423-4.751,0.561C252.53,220.764,253.491,221.964,254.418,223.211z M127.764,237.528H98.851l20.433-20.436
			c4.352-4.334,9.675-7.582,15.828-9.646l1.392-0.463l1.447,0.24c6.507,1.104,11.587,1.258,18.85,0.177l22.958-3.396l-18.595,13.884
			c-5.083,3.791-9.503,8.291-13.146,13.374l-0.837,1.167l-1.284,0.646C140.071,236.03,133.971,237.528,127.764,237.528z
			 M127.126,225.818h0.638c3.928,0,7.839-0.875,11.633-2.602c0.932-1.253,1.898-2.453,2.905-3.631
			c-1.559-0.138-3.145-0.332-4.766-0.572c-3.877,1.487-7.225,3.626-9.978,6.37L127.126,225.818z M71.401,237.466l-2.688-0.211
			c-21.028-1.636-37.499-19.355-37.505-40.341c0-20.968,16.465-38.686,37.479-40.344l2.688-0.208l34.154,34.139
			c0.457,0.458,0.938,0.872,1.418,1.295l5.675,5.118l-5.681,5.117c-0.48,0.423-0.961,0.847-1.418,1.292L71.401,237.466z
			 M67.027,168.569c-13.715,2.33-24.107,14.315-24.107,28.345c0.005,14.038,10.406,26.022,24.124,28.344l28.338-28.344
			L67.027,168.569z M322.444,237.443l-34.125-34.108c-0.451-0.445-0.932-0.857-1.406-1.28l-5.689-5.129l5.655-5.101
			c0.491-0.426,0.983-0.86,1.446-1.324l34.148-34.139l2.692,0.208c21.014,1.664,37.471,19.381,37.471,40.332
			c0.012,20.985-16.462,38.694-37.505,40.335L322.444,237.443z M298.469,196.92l28.339,28.327
			c13.724-2.322,24.13-14.295,24.118-28.345c0-14.018-10.39-25.991-24.102-28.333L298.469,196.92z M193.149,206.068l-1.758-1.784
			c-0.22-0.234-0.438-0.48-0.649-0.721l-2.951-2.784v-2.519c0-0.375,0.023-0.755,0.052-1.124l-0.117-4.04l2.97-2.811
			c0.22-0.251,0.443-0.503,0.678-0.743l1.758-1.787l2.499,0.029c0.34,0.006,0.663,0.022,0.995,0.049
			c0.915-0.026,1.247-0.043,1.586-0.049l2.565-0.029l5.312,5.346l-0.08,4.134l0.074,3.434l-1.747,1.738
			c-0.251,0.251-0.52,0.491-0.789,0.731l-0.408,0.412c-0.224,0.251-0.44,0.497-0.669,0.731l-1.756,1.784l-2.502-0.022
			c-0.337-0.012-0.666-0.023-1-0.058l-0.298-0.017c-0.609,0.051-0.938,0.062-1.272,0.074L193.149,206.068z M214.071,189.807
			l18.595-13.861c5.078-3.783,9.498-8.286,13.129-13.375l0.846-1.175l1.293-0.649c5.855-2.947,11.973-4.439,18.16-4.439h28.898
			l-20.436,20.428c-4.403,4.399-9.973,7.642-16.548,9.635l-1.281,0.386l-1.338-0.206c-6.701-1.066-11.447-1.129-18.378-0.111
			L214.071,189.807z M251.513,174.265c1.39,0.123,2.825,0.289,4.306,0.498c4.18-1.432,7.69-3.554,10.447-6.315l0.435-0.435h-0.612
			c-3.923,0-7.851,0.877-11.67,2.604C253.491,171.872,252.52,173.09,251.513,174.265z M179.763,189.801l-22.935-3.368
			c-7.001-1.023-11.645-0.955-18.363,0.111l-1.321,0.212l-1.29-0.386c-6.576-1.987-12.142-5.229-16.554-9.641l-20.45-20.445h28.913
			c6.169,0,12.271,1.493,18.12,4.432l1.295,0.649l0.843,1.178c3.643,5.106,8.068,9.615,13.157,13.403L179.763,189.801z
			 M127.126,167.995l0.455,0.457c2.771,2.768,6.278,4.889,10.453,6.316c1.481-0.208,2.91-0.375,4.297-0.498
			c-1.018-1.195-1.996-2.419-2.933-3.671c-3.817-1.721-7.722-2.599-11.633-2.599h-0.638V167.995z M203.944,179.957l3.414-23.081
			c0.932-6.29,0.869-12.625-0.16-18.826l-0.24-1.433l0.457-1.378c2.07-6.218,5.335-11.587,9.716-15.953l20.401-20.413v28.89
			c0,6.184-1.492,12.285-4.442,18.134l-0.646,1.292l-1.178,0.843c-5.112,3.654-9.624,8.088-13.415,13.191L203.944,179.957z
			 M218.988,137.646c0.218,1.57,0.4,3.151,0.526,4.732c1.201-1.032,2.437-2.021,3.705-2.962c1.728-3.82,2.603-7.731,2.603-11.648
			v-0.608l-0.418,0.417C222.625,130.345,220.47,133.729,218.988,137.646z M189.821,179.817l-13.863-18.644
			c-3.794-5.1-8.297-9.526-13.397-13.157l-1.184-0.85l-0.649-1.298c-2.934-5.855-4.42-11.945-4.42-18.106V98.855l20.428,20.442
			c4.369,4.38,7.619,9.729,9.661,15.913l0.458,1.375l-0.24,1.43c-0.598,3.582-0.889,6.855-0.889,10.001
			c0,2.636,0.234,5.515,0.72,8.811L189.821,179.817z M170.611,139.391c1.252,0.938,2.47,1.91,3.66,2.922
			c0.128-1.532,0.317-3.096,0.558-4.706c-1.47-3.894-3.614-7.262-6.378-10.029l-0.432-0.435v0.621
			C168.019,131.663,168.891,135.568,170.611,139.391z M256.487,137.35l0.435-7.614c0.046-0.655,0.092-1.312,0.092-1.967V79.486
			l2.047-1.75c7.434-6.381,16.782-9.896,26.337-9.896c10.853,0,21.054,4.226,28.728,11.911c14.81,14.818,15.69,38.988,2.001,55.013
			l-1.761,2.056l-48.317,0.02c-0.629,0-1.246,0.046-1.864,0.091L256.487,137.35z M268.724,85.001v40.115l40.095-0.017
			c8.051-11.342,6.931-27.164-2.979-37.082C296.125,78.305,280.034,76.824,268.724,85.001z M137.341,137.318l-7.599-0.409
			c-0.649-0.046-1.307-0.095-1.967-0.095h-48.3l-1.75-2.056c-13.692-16.03-12.805-40.2,2.013-55.021
			c7.677-7.67,17.872-11.891,28.713-11.891c9.558,0,18.906,3.514,26.337,9.89l2.044,1.75v48.277c0,0.637,0.046,1.266,0.095,1.898
			L137.341,137.318z M85.024,125.104h40.098V85.015c-11.302-8.168-27.398-6.699-37.104,3.008
			C78.1,97.935,76.979,113.757,85.024,125.104z M196.903,112.593l-5.149-5.692c-0.403-0.463-0.807-0.932-1.252-1.375l-34.114-34.119
			l0.206-2.682c1.621-21.037,19.335-37.519,40.326-37.519c20.982,0,38.697,16.468,40.332,37.501l0.206,2.682l-34.116,34.142
			c-0.443,0.443-0.844,0.901-1.241,1.353L196.903,112.593z M168.584,67.038l28.341,28.341l28.33-28.353
			c-2.316-13.718-14.295-24.116-28.336-24.116C182.874,42.911,170.892,53.32,168.584,67.038z"/>
	</g>
</g>
<g>
</g>
<g>
</g>
<g>
</g>
<g>
</g>
<g>
</g>
<g>
</g>
<g>
</g>
<g>
</g>
<g>
</g>
<g>
</g>
<g>
</g>
<g>
</g>
<g>
</g>
<g>
</g>
<g>
</g>
</svg>
