<?xml version="1.0" encoding="iso-8859-1"?>
<!-- Generator: Adobe Illustrator 18.1.1, SVG Export Plug-In . SVG Version: 6.00 Build 0)  -->
<svg version="1.1" id="Capa_1" xmlns="http://www.w3.org/2000/svg" xmlns:xlink="http://www.w3.org/1999/xlink" x="0px" y="0px"
	 viewBox="0 0 401.355 401.355" style="enable-background:new 0 0 401.355 401.355;" xml:space="preserve">
<g>
	<g>
		<path style="fill:#304B71;" d="M129.553,171.201l0.465,0.465c2.822,2.822,6.396,4.982,10.651,6.438
			c1.51-0.215,2.966-0.382,4.38-0.507c-1.038-1.217-2.035-2.464-2.989-3.741c-3.89-1.754-7.87-2.649-11.856-2.649h-0.65V171.201z"/>
		<path style="fill:#304B71;" d="M177.598,145.031c0.131-1.563,0.322-3.156,0.567-4.797c-1.498-3.968-3.682-7.399-6.498-10.221
			l-0.442-0.442v0.632c0,3.974,0.889,7.954,2.643,11.844C175.145,143.002,176.387,143.998,177.598,145.031z"/>
		<path style="fill:#304B71;" d="M68.309,171.786c-13.974,2.375-24.566,14.589-24.566,28.886
			c0.006,14.303,10.603,26.517,24.584,28.886l28.88-28.886L68.309,171.786z"/>
		<path style="fill:#304B71;" d="M127.506,127.494V86.639c-11.516-8.324-27.919-6.826-37.812,3.067
			c-10.102,10.102-11.248,26.23-3.049,37.788H127.506z"/>
		<path style="fill:#304B71;" d="M271.349,171.667l0.442-0.442h-0.627c-3.998,0-7.996,0.895-11.892,2.655
			c-0.943,1.265-1.933,2.506-2.96,3.711c1.414,0.125,2.876,0.292,4.386,0.507C264.959,176.643,268.539,174.483,271.349,171.667z"/>
		<path style="fill:#304B71;" d="M229.557,68.309c-2.363-13.98-14.571-24.578-28.88-24.578s-26.517,10.603-28.874,24.589
			l28.88,28.88L229.557,68.309z"/>
		<path style="fill:#304B71;" d="M311.673,89.7c-9.899-9.899-26.296-11.415-37.818-3.073v40.879l40.855-0.018
			C322.915,115.93,321.775,99.808,311.673,89.7z"/>
		<path style="fill:#304B71;" d="M227.481,142.071c1.76-3.89,2.649-7.876,2.649-11.868v-0.621l-0.424,0.424
			c-2.834,2.828-5.03,6.271-6.54,10.263c0.227,1.599,0.406,3.21,0.537,4.821C224.927,144.046,226.186,143.038,227.481,142.071z"/>
		<path style="fill:#304B71;" d="M273.849,273.849v40.778c4.893,3.383,10.902,5.227,17.197,5.227c7.882,0,15.395-2.989,20.61-8.198
			c10.114-10.108,11.248-26.242,3.031-37.806H273.849z"/>
		<path style="fill:#304B71;" d="M271.785,230.136l-0.442-0.442c-2.81-2.804-6.223-4.982-10.168-6.486
			c-1.659,0.245-3.276,0.436-4.845,0.573c1.02,1.199,2.005,2.429,2.948,3.693c3.896,1.766,7.888,2.661,11.892,2.661
			C271.17,230.136,271.785,230.136,271.785,230.136z"/>
		<path style="fill:#304B71;" d="M401.355,200.672c0-28.032-16.48-53.803-41.577-65.898c9.189-26.296,2.619-56.166-17.197-75.988
			c-13.819-13.825-32.197-21.445-51.757-21.445c-8.324,0-16.463,1.396-24.279,4.165c-12.107-25.049-37.866-41.494-65.88-41.494
			s-53.773,16.451-65.88,41.506c-7.811-2.763-15.949-4.165-24.273-4.165c-19.547,0-37.919,7.608-51.739,21.427
			c-19.828,19.816-26.397,49.686-17.208,75.988C16.475,146.869,0,172.639,0,200.666c0.006,28.044,16.486,53.821,41.571,65.916
			c-9.183,26.284-2.608,56.154,17.214,75.982c13.813,13.819,32.191,21.433,51.739,21.433c8.306,0,16.439-1.396,24.261-4.159
			c12.107,25.055,37.866,41.506,65.886,41.506s53.773-16.457,65.88-41.506c7.811,2.769,15.949,4.165,24.273,4.165
			c19.542,0,37.913-7.608,51.739-21.433c19.834-19.834,26.403-49.71,17.208-76C384.857,254.475,401.344,228.704,401.355,200.672z
			 M261.832,132.214c0.042-0.668,0.095-1.337,0.095-2.005V81.006l2.082-1.784c7.572-6.504,17.101-10.084,26.839-10.084
			c11.063,0,21.457,4.308,29.273,12.137c15.09,15.102,15.991,39.733,2.041,56.065l-1.79,2.094l-49.245,0.018
			c-0.638,0-1.271,0.048-1.897,0.095l-7.835,0.436L261.832,132.214z M250.489,165.682l0.859-1.199l1.319-0.662
			c5.967-3.001,12.196-4.523,18.503-4.523h29.452l-20.824,20.818c-4.493,4.481-10.162,7.787-16.868,9.816l-1.307,0.394l-1.36-0.215
			c-6.826-1.086-11.665-1.152-18.724-0.113l-23.378,3.437l18.945-14.124C242.279,175.45,246.784,170.867,250.489,165.682z
			 M242.064,130.203c0,6.301-1.522,12.518-4.523,18.479l-0.662,1.319l-1.199,0.859c-5.209,3.723-9.81,8.24-13.67,13.443
			l-14.171,19.088l3.479-23.521c0.949-6.408,0.889-12.865-0.161-19.183l-0.245-1.462l0.465-1.402
			c2.106-6.337,5.436-11.808,9.899-16.26l20.789-20.801V130.203z M210.016,204.497l-1.778,1.778
			c-0.257,0.257-0.531,0.501-0.806,0.74l-0.418,0.424c-0.227,0.257-0.448,0.507-0.68,0.746l-1.79,1.82l-2.548-0.03
			c-0.346-0.006-0.68-0.024-1.02-0.054l-0.304-0.018c-0.621,0.048-0.955,0.066-1.295,0.072l-2.548,0.036l-1.79-1.82
			c-0.227-0.239-0.448-0.489-0.662-0.734l-3.007-2.84v-2.566c0-0.382,0.024-0.77,0.054-1.146l-0.119-4.117l3.025-2.864
			c0.227-0.257,0.453-0.513,0.692-0.758l1.79-1.82l2.548,0.03c0.346,0.006,0.674,0.024,1.014,0.048
			c0.931-0.024,1.271-0.042,1.617-0.048l2.613-0.03l5.412,5.448l-0.084,4.213L210.016,204.497z M159.584,70.033
			c1.653-21.439,19.703-38.236,41.094-38.236c21.385,0,39.435,16.785,41.1,38.218l0.209,2.733l-34.763,34.793
			c-0.453,0.453-0.859,0.919-1.265,1.378l-5.299,5.818l-5.245-5.8c-0.412-0.471-0.823-0.949-1.277-1.402l-34.763-34.769
			L159.584,70.033z M159.292,100.751l20.818,20.83c4.451,4.463,7.763,9.917,9.845,16.218l0.465,1.402l-0.245,1.456
			c-0.609,3.652-0.907,6.987-0.907,10.191c0,2.685,0.239,5.621,0.734,8.98l3.437,23.426l-14.13-18.999
			c-3.867-5.197-8.455-9.708-13.652-13.408l-1.205-0.865l-0.662-1.325c-2.989-5.967-4.505-12.172-4.505-18.45v-29.458H159.292z
			 M149.989,164.447l0.859,1.199c3.711,5.203,8.222,9.798,13.408,13.658l18.945,14.118l-23.372-3.431
			c-7.136-1.044-11.868-0.973-18.712,0.113l-1.349,0.215l-1.313-0.394c-6.701-2.023-12.375-5.328-16.868-9.821l-20.842-20.836
			h29.464c6.289,0,12.507,1.522,18.467,4.517L149.989,164.447z M81.257,81.263c7.823-7.817,18.211-12.119,29.262-12.119
			c9.738,0,19.267,3.58,26.839,10.078l2.082,1.784v49.197c0,0.65,0.048,1.289,0.095,1.933l0.43,7.799l-7.745-0.418
			c-0.662-0.048-1.331-0.095-2.005-0.095H80.994l-1.784-2.094C65.254,120.996,66.155,96.371,81.257,81.263z M31.803,200.672
			c0-21.367,16.779-39.423,38.194-41.112l2.739-0.215l34.805,34.793c0.465,0.465,0.955,0.889,1.444,1.319l5.782,5.215l-5.788,5.215
			c-0.489,0.43-0.979,0.859-1.444,1.319l-34.787,34.793l-2.739-0.215C48.6,240.113,31.809,222.057,31.803,200.672z M139.535,269.195
			c-0.042,0.644-0.095,1.295-0.095,1.951v49.179l-2.112,1.79c-7.375,6.229-16.964,9.66-27,9.66
			c-11.188,0-21.499-4.147-29.041-11.689c-15.108-15.126-16.009-39.763-2.047-56.089l1.784-2.088h49.197
			c0.632,0,1.253-0.048,1.88-0.09l7.864-0.412L139.535,269.195z M150.848,235.667l-0.853,1.187l-1.307,0.662
			c-5.943,3.007-12.166,4.535-18.485,4.535h-29.464l20.824-20.818c4.433-4.421,9.857-7.727,16.128-9.833l1.42-0.471l1.474,0.245
			c6.629,1.122,11.808,1.283,19.207,0.179l23.396-3.461l-18.951,14.147C159.065,225.906,154.554,230.488,150.848,235.667z
			 M159.286,271.146c0.006-6.301,1.533-12.513,4.535-18.479l0.662-1.313l1.199-0.859c5.209-3.723,9.81-8.252,13.676-13.455
			l14.165-19.082l-3.473,23.509c-0.949,6.402-0.895,12.865,0.155,19.195l0.245,1.45l-0.459,1.396
			c-2.088,6.331-5.406,11.802-9.857,16.266l-20.842,20.824v-29.452H159.286z M241.772,331.328
			c-1.647,21.439-19.703,38.23-41.1,38.23c-21.379,0-39.429-16.785-41.094-38.224l-0.215-2.739l34.799-34.775
			c0.483-0.483,0.919-0.996,1.366-1.504l5.114-5.758l5.263,5.842c0.424,0.477,0.847,0.967,1.301,1.42l34.775,34.769L241.772,331.328
			z M242.064,300.599l-20.812-20.812c-4.451-4.463-7.769-9.935-9.857-16.272l-0.459-1.39l0.239-1.45
			c1.05-6.337,1.104-12.805,0.155-19.225l-3.467-23.539l14.165,19.118c3.837,5.179,8.431,9.708,13.658,13.461l1.187,0.859
			l0.656,1.307c3.007,5.961,4.535,12.184,4.535,18.503C242.064,271.158,242.064,300.599,242.064,300.599z M251.336,236.867
			l-0.853-1.199c-3.699-5.173-8.198-9.756-13.372-13.61l-18.891-14.076l23.313,3.389c7.5,1.092,12.465,0.943,19.231-0.179
			l1.462-0.245l1.402,0.471c6.283,2.094,11.713,5.4,16.146,9.833l20.812,20.812h-29.429c-6.319,0-12.542-1.528-18.515-4.541
			L251.336,236.867z M320.093,320.093c-7.548,7.542-17.865,11.695-29.047,11.695c-10.048,0-19.637-3.431-27.012-9.666l-2.112-1.79
			v-49.179c0-0.632-0.048-1.265-0.089-1.892l-0.412-7.876l7.715,0.436c0.668,0.048,1.349,0.101,2.035,0.101h49.173l1.784,2.088
			C336.102,280.347,335.213,304.979,320.093,320.093z M331.334,241.766l-2.739,0.209l-34.775-34.757
			c-0.459-0.459-0.949-0.877-1.432-1.307l-5.8-5.227l5.764-5.197c0.501-0.436,1.002-0.877,1.474-1.349l34.799-34.793l2.745,0.215
			c21.415,1.695,38.188,19.75,38.188,41.1C369.564,222.045,352.779,240.095,331.334,241.766z"/>
		<path style="fill:#304B71;" d="M333.059,171.786l-28.898,28.892l28.88,28.868c13.986-2.363,24.589-14.571,24.583-28.886
			C357.624,186.375,347.033,174.173,333.059,171.786z"/>
		<path style="fill:#304B71;" d="M89.724,311.656c5.209,5.203,12.715,8.193,20.598,8.193c6.283,0,12.292-1.844,17.185-5.221v-40.778
			H86.675C78.47,285.395,79.616,301.53,89.724,311.656z"/>
		<path style="fill:#304B71;" d="M129.994,229.677l-0.442,0.442h0.65c4.004,0,7.99-0.889,11.856-2.649
			c0.949-1.271,1.933-2.5,2.96-3.699c-1.587-0.137-3.204-0.334-4.857-0.579C136.218,224.7,132.805,226.884,129.994,229.677z"/>
		<path style="fill:#304B71;" d="M173.88,259.284c-1.76,3.89-2.655,7.876-2.655,11.862h-0.006v0.656l0.465-0.459
			c2.816-2.828,5.006-6.277,6.504-10.275c-0.233-1.599-0.406-3.204-0.531-4.815C176.434,257.309,175.175,258.318,173.88,259.284z"/>
		<path style="fill:#304B71;" d="M223.716,256.247c-0.125,1.617-0.304,3.222-0.537,4.827c1.51,3.998,3.693,7.453,6.516,10.281
			l0.436,0.436v-0.638c0-4.004-0.889-7.996-2.655-11.886C226.186,258.294,224.933,257.291,223.716,256.247z"/>
		<path style="fill:#304B71;" d="M171.804,333.041c2.357,13.986,14.565,24.584,28.868,24.584c14.315,0,26.523-10.603,28.88-24.589
			l-28.868-28.862L171.804,333.041z"/>
	</g>
</g>
<g>
</g>
<g>
</g>
<g>
</g>
<g>
</g>
<g>
</g>
<g>
</g>
<g>
</g>
<g>
</g>
<g>
</g>
<g>
</g>
<g>
</g>
<g>
</g>
<g>
</g>
<g>
</g>
<g>
</g>
</svg>
