<?xml version="1.0" encoding="UTF-8" standalone="no"?>
<!-- Created with Inkscape (http://www.inkscape.org/) -->

<svg
   xmlns:dc="http://purl.org/dc/elements/1.1/"
   xmlns:cc="http://creativecommons.org/ns#"
   xmlns:rdf="http://www.w3.org/1999/02/22-rdf-syntax-ns#"
   xmlns:svg="http://www.w3.org/2000/svg"
   xmlns="http://www.w3.org/2000/svg"
   xmlns:sodipodi="http://sodipodi.sourceforge.net/DTD/sodipodi-0.dtd"
   xmlns:inkscape="http://www.inkscape.org/namespaces/inkscape"
   id="svg2"
   version="1.1"
   inkscape:version="0.48.1 "
   width="1594"
   height="1666"
   sodipodi:docname="pi.jpg">
  <metadata
     id="metadata8">
    <rdf:RDF>
      <cc:Work
         rdf:about="">
        <dc:format>image/svg+xml</dc:format>
        <dc:type
           rdf:resource="http://purl.org/dc/dcmitype/StillImage" />
        <dc:title></dc:title>
      </cc:Work>
    </rdf:RDF>
  </metadata>
  <defs
     id="defs6" />
  <sodipodi:namedview
     pagecolor="#e0ddc6"
     bordercolor="#304B71"
     borderopacity="1"
     objecttolerance="10"
     gridtolerance="10"
     guidetolerance="10"
     inkscape:pageopacity="0"
     inkscape:pageshadow="2"
     inkscape:window-width="1600"
     inkscape:window-height="1144"
     id="namedview4"
     showgrid="false"
     showguides="true"
     inkscape:guide-bbox="true"
     inkscape:zoom="0.22047504"
     inkscape:cx="2105.4562"
     inkscape:cy="1257.0798"
     inkscape:window-x="-4"
     inkscape:window-y="-4"
     inkscape:window-maximized="1"
     inkscape:current-layer="svg2">
    <sodipodi:guide
       orientation="0,1"
       position="1493.642,1617.4288"
       id="guide2987" />
    <sodipodi:guide
       orientation="1,0"
       position="1411.6382,1602.9805"
       id="guide2989" />
    <sodipodi:guide
       orientation="0,1"
       position="1517.4622,1274.965"
       id="guide2991" />
    <sodipodi:guide
       orientation="1,0"
       position="1574.4785,1557.4847"
       id="guide3002" />
  </sodipodi:namedview>
  <path
     style="fill:#304B71;stroke:none"
     d="m 417.28073,48.5712 809.68497,0 0,1606.7578 -809.68497,0 z"
     id="rect4102"
     inkscape:connector-curvature="0"
     inkscape:export-filename="D:\Загрузки\g4105.png"
     inkscape:export-xdpi="90"
     inkscape:export-ydpi="90" />
  <g
     id="g4105"
     transform="matrix(2.2244899,0,0,2.2244899,-3845.4403,-17.999669)"
     inkscape:export-xdpi="90"
     inkscape:export-ydpi="90">
    <path
       style="fill:#e0ddc6;stroke:none"
       d="m 2120.662,48.5712 c 29.6776,0 5.6413,0.219861 35.3189,0.219861 9.842,2.298733 3.8368,18.776602 -7.8402,13.235111 -11.6617,-4.003518 -16.4842,2.001759 -21.3066,3.669891 1.5013,-8.971261 -1.3345,-13.82525 -6.1721,-17.124863 z"
       id="path3054"
       inkscape:connector-curvature="0"
       sodipodi:nodetypes="ccccc" />
    <path
       sodipodi:nodetypes="cccc"
       inkscape:connector-curvature="0"
       id="path3056"
       d="m 2190.2231,48.5712 c 12.9963,0 17.1514,0 28.1459,0.219861 -0.5188,3.452058 -6.8126,6.597337 -14.3004,6.729394 -8.6743,-0.130159 -11.5101,-2.648763 -13.8455,-6.949255 z"
       style="fill:#e0ddc6;stroke:none" />
    <path
       style="fill:#e0ddc6;stroke:none"
       d="m 2239.5998,48.5712 c 2.3203,0 7.8099,0 10.2969,0 -1.4081,1.927525 -1.3763,3.380919 -1.6226,5.228075 -2.4491,-2.544002 -4.4968,-4.103693 -8.6743,-5.228075 z"
       id="path3058"
       inkscape:connector-curvature="0"
       sodipodi:nodetypes="cccc" />
    <path
       sodipodi:nodetypes="cccccccccccccccccccc"
       inkscape:connector-curvature="0"
       id="path3060"
       d="m 2166.1635,48.5712 c 5.9924,0.219861 9.2525,0 13.8642,0 2.4072,4.741596 17.4319,21.644311 48.2395,17.58978 -11.908,8.776376 -18.7519,26.180096 -18.5898,30.095612 6.9175,1.262766 26.147,-6.472875 31.3039,-12.150333 -4.6381,23.762351 7.1928,37.306661 20.168,34.586271 l 0,10.54482 c -3.8605,-7.29989 -10.5095,-9.7177 -17.5364,-8.03522 9.2406,11.74448 -2.7047,20.98641 -12.8,17.55146 -12.9575,-2.69864 -14.9545,-14.22045 -14.7855,-20.02883 0.8921,-10.05177 12.5624,-6.29196 9.241,0.66548 5.0637,3.25978 9.4964,10.86017 9.3803,10.52493 10.4493,-3.52918 10.3534,-19.54648 -1.0775,-25.78508 -12.0235,-6.601662 -26.9811,-2.01857 -30.3643,13.63517 -1.7687,-10.77228 -9.0903,-16.85663 -18.1408,-17.66775 4.5114,-6.417746 14.7307,-9.700503 22.1273,-5.497878 0.1605,-15.357872 -19.109,-26.796852 -33.9832,-17.410354 -5.3842,4.458996 -11.98,5.555313 -19.6469,5.682143 -2.8576,0.580794 -4.0547,-2.752971 -0.2395,-2.844251 36.8697,-1.005403 20.2264,-28.36878 12.8397,-31.45597 z"
       style="fill:#e0ddc6;stroke:none" />
    <path
       sodipodi:nodetypes="cccccsccc"
       inkscape:connector-curvature="0"
       id="path3062"
       d="m 2120.1712,95.854198 c -2.525,25.025112 36.2467,26.074132 33.3609,-1.7255 5.3759,11.537142 21.1769,14.715022 26.0404,8.630152 9.3278,6.24104 8.1219,21.69048 -9.4686,21.89105 -25.6728,2.60925 -42.0451,8.18631 -50.252,13.1396 1.1696,-3.92074 5.2529,-13.85121 3.4926,-22.15072 -1.9289,-9.09423 -7.7256,-12.9574 -8.9572,-22.52805 -1.1096,-17.141231 18.2578,-18.484271 23.1679,-7.677146 3.8062,11.52389 -7.779,18.266966 -17.384,10.420614 z"
       style="fill:#e0ddc6;stroke:none" />
    <path
       style="fill:#e0ddc6;stroke:none"
       d="m 2180.9578,134.20761 c 14.0244,2.66107 18.0586,-4.23352 21.7351,-9.39629 -0.095,8.65325 5.1017,15.42727 10.4355,19.91381 -12.9031,5.22342 -17.0788,-0.7528 -22.3947,-5.047 -2.8169,-2.27547 -5.4868,-3.67228 -10.4054,-3.50135 -1.9949,0.63681 -3.3574,-2.84715 0.6295,-1.96917 z"
       id="path3064"
       inkscape:connector-curvature="0"
       sodipodi:nodetypes="cccscc" />
    <path
       style="fill:#e0ddc6;stroke:none"
       d="m 2107.6022,110.52095 c 0.5539,-6.37321 -2.7891,-14.562756 -9.3397,-15.72655 -6.5507,1.163794 -9.8937,9.35334 -9.3398,15.72655 6.5428,0.10507 9.2932,4.35914 9.3398,8.11525 0.047,-3.75611 2.7969,-8.01018 9.3397,-8.11525 z"
       id="path3068"
       inkscape:connector-curvature="0"
       sodipodi:nodetypes="ccccc" />
    <path
       sodipodi:nodetypes="cscsccc"
       inkscape:connector-curvature="0"
       id="path3070"
       d="m 2112.8196,131.72339 c -0.5541,6.62342 -5.5343,14.70081 -8.5708,14.99311 -1.7773,0.17109 -4.6551,-3.15866 -5.9863,-6.55177 -1.3313,3.39311 -4.2091,6.72286 -5.9864,6.55177 -3.0365,-0.2923 -8.0167,-8.36969 -8.5708,-14.99311 -0.5539,-8.54713 8.2782,-12.44318 14.5572,-5.6178 6.2789,-6.82538 15.111,-2.92933 14.5571,5.6178 z"
       style="fill:#e0ddc6;stroke:none" />
    <path
       sodipodi:nodetypes="ccccc"
       inkscape:connector-curvature="0"
       id="path3072"
       d="m 2106.4498,212.27114 c -1.8235,2.57448 -5.4519,9.62721 -8.1873,23.37071 -2.7355,-13.7435 -6.3639,-20.79623 -8.1874,-23.37071 3.6715,-3.30017 5.8073,-6.16676 8.1874,-11.17186 2.38,5.0051 4.5158,7.87169 8.1873,11.17186 z"
       style="fill:#e0ddc6;stroke:none" />
    <path
       style="fill:#e0ddc6;stroke:none"
       d="m 2118.8528,320.69446 c 3.7725,6.83193 15.0587,19.53523 20.0324,25.01456 -6.8055,-1.18386 -13.3182,2.63495 -15.4827,9.11484 -4.1276,-6.26705 -11.5343,-17.3848 -4.5497,-34.1294 z"
       id="path3078"
       inkscape:connector-curvature="0"
       sodipodi:nodetypes="cccc" />
    <path
       sodipodi:nodetypes="ccccccc"
       inkscape:connector-curvature="0"
       id="path3080"
       d="m 2128.5839,308.62041 c 8.2577,16.01704 27.6251,35.44685 45.6262,46.52265 -2.5629,-5.26773 -1.1452,-11.54776 1.5113,-19.62755 -13.1549,10.35161 -34.9454,-1.07596 -30.043,-18.61458 11.8909,15.23495 26.4906,1.50523 21.0594,-9.3565 -9.4688,-13.10063 -28.4358,-9.81004 -38.1538,1.07598 z"
       style="fill:#e0ddc6;stroke:none" />
    <path
       sodipodi:nodetypes="cccc"
       inkscape:connector-curvature="0"
       id="path3082"
       d="m 2171.8475,369.24229 c 6.3769,4.63874 13.4138,7.81537 19.7582,10.75883 -11.0548,0.73518 -19.9663,2.15519 -27.2025,4.31724 3.2059,-4.27948 6.7651,-10.39401 7.4443,-15.07607 z"
       style="fill:#e0ddc6;stroke:none" />
    <path
       style="fill:#e0ddc6;stroke:none"
       d="m 2205.7633,352.09067 c 9.1577,10.839 28.6175,23.28582 34.1911,25.87163 -15.9682,-1.82531 -38.1666,-7.32556 -49.1398,-12.98341 1.3439,-0.4552 2.5569,-0.95276 3.8853,-2.16976 -7.0531,-2.09903 -7.452,-8.70738 -4.771,-12.7077 3.7518,-5.59805 11.3413,-4.12419 15.8344,1.98924 z"
       id="path3084"
       inkscape:connector-curvature="0"
       sodipodi:nodetypes="ccccsc" />
    <path
       sodipodi:nodetypes="cccccc"
       inkscape:connector-curvature="0"
       id="path3086"
       d="m 2208.2954,308.70265 c 10.9145,4.25117 2.0905,13.71151 4.2385,25.43244 -5.4277,-5.33882 -13.5721,-7.94042 -25.9507,-7.53747 2.8372,-1.94844 5.4556,-7.62843 4.9394,-12.88596 2.2577,3.08339 4.3182,4.11692 7.3506,4.59633 -1.864,-7.38008 3.9629,-11.67824 9.4222,-9.60534 z"
       style="fill:#e0ddc6;stroke:none" />
    <path
       style="fill:#e0ddc6;stroke:none"
       d="m 2261.1493,339.77945 0,39.92567 c -18.6912,-7.18341 -26.4842,-24.01473 -28.2344,-32.57122 -0.8521,-6.16465 1.7663,-12.10815 8.1015,-11.56839 6.7374,0.0969 9.1527,6.73771 3.4857,11.09631 7.9699,4.51032 16.6472,-2.03964 16.6472,-6.88237 z"
       id="path3088"
       inkscape:connector-curvature="0"
       sodipodi:nodetypes="cccccc" />
    <path
       style="fill:#e0ddc6;stroke:none"
       d="m 2261.1493,288.05407 0,38.60338 c -6.7508,-10.24453 -23.2163,-16.11505 -35.6349,-1.39221 2.8545,-23.86729 29.8611,-23.13047 35.6349,-37.21117 z"
       id="path3090"
       inkscape:connector-curvature="0"
       sodipodi:nodetypes="cccc" />
    <path
       sodipodi:nodetypes="ccccc"
       inkscape:connector-curvature="0"
       id="path3092"
       d="m 2261.1493,252.91899 0,28.80573 c -11.0261,-5.61291 -26.9572,1.07537 -36.7037,16.51077 5.1728,-10.71085 8.6636,-29.3573 8.0314,-33.98134 7.3278,2.7843 23.9123,-3.64124 28.6723,-11.33516 z"
       style="fill:#e0ddc6;stroke:none" />
    <path
       style="fill:#e0ddc6;stroke:none"
       d="m 2122.7614,279.7638 c -1.4185,-10.88959 8.2882,-12.72025 12.7088,-8.96785 2.622,2.22565 3.9413,8.04572 0.046,12.68232 -4.1501,4.8814 -7.078,9.19974 -12.856,13.86112 -6.9572,-11.42344 -11.2587,-33.60483 -9.8586,-43.54663 3.0029,0.6348 5.3828,0.71018 9.3733,1.08313 -12.9359,9.65363 -4.7668,25.37007 0.586,24.88791 z"
       id="path3094"
       inkscape:connector-curvature="0"
       sodipodi:nodetypes="csccccc" />
    <path
       style="fill:#e0ddc6;stroke:none"
       d="m 2261.1493,84.756302 c 0,12.9963 0,15.581708 0,26.668538 -3.2212,-3.47351 -5.663,-7.92061 -5.9336,-14.392729 0.361,-7.058441 3.7568,-10.771422 5.9336,-12.275809 z"
       id="path3096"
       inkscape:connector-curvature="0"
       sodipodi:nodetypes="cccc" />
    <path
       sodipodi:nodetypes="cccc"
       inkscape:connector-curvature="0"
       id="path3098"
       d="m 2261.1493,69.534808 c 0,-2.3203 0,-7.8099 0,-10.2969 -1.9275,1.4081 -3.3809,1.3763 -5.2281,1.6226 2.544,2.4491 4.1037,4.496799 5.2281,8.6743 z"
       style="fill:#e0ddc6;stroke:none" />
    <path
       sodipodi:nodetypes="cccc"
       inkscape:connector-curvature="0"
       id="path3100"
       d="m 2261.1493,144.13863 c 0,12.9963 0,11.23092 0,22.31775 -2.724,-5.77321 -6.5953,-10.90401 -10.4087,-14.64135 3.2201,-1.40241 7.859,-4.24523 10.4087,-7.6764 z"
       style="fill:#e0ddc6;stroke:none" />
    <path
       style="fill:#e0ddc6;stroke:none"
       d="m 2261.1493,242.3234 c 0,-2.3203 0,-8.80705 0,-11.29405 -1.1605,2.09844 -1.6167,2.91038 -2.6969,3.92371 1.3935,1.83547 1.8026,3.95988 2.6969,7.37034 z"
       id="path3102"
       inkscape:connector-curvature="0"
       sodipodi:nodetypes="cccc" />
    <path
       style="fill:#e0ddc6;stroke:none"
       d="m 2214.6457,294.60318 c -6.6023,-7.13957 -22.8925,-4.66683 -24.7648,11.07436 -2.8432,-10.60345 -15.5822,-14.64086 -24.8021,-14.90795 -2.3978,-0.19389 -2.8843,-2.44625 0.3374,-2.90286 10.9518,3.60571 24.2086,-0.4951 30.9776,-4.55053 7.0656,-4.2331 11.6069,-3.99607 20.5275,-5.52829 -8.7289,-16.92267 -42.0502,-24.80982 -57.5277,0.35446 -1.5932,3.10444 -4.6876,1.00578 -2.0448,-2.05177 8.0392,-13.66554 -5.086,-22.59035 -11.9482,-23.86745 10.6814,-3.25153 23.7132,-8.45676 28.2188,-13.0102 18.3346,8.66621 15.4889,20.69162 32.0827,22.39993 4.7407,-20.01519 26.4573,10.52893 8.9436,32.9903 z"
       id="path3104"
       inkscape:connector-curvature="0"
       sodipodi:nodetypes="ccccsccccccc" />
    <path
       sodipodi:nodetypes="cccsccc"
       inkscape:connector-curvature="0"
       id="path3106"
       d="m 2164.2522,365.42835 c -4.2246,-0.53595 -7.1132,-1.13686 -10.5727,-0.89295 -1.716,9.88419 -14.9483,21.6471 -32.7465,19.8032 4.3745,-3.35845 8.8331,-6.9911 7.7792,-16.08522 -1.6415,-14.16512 15.2683,-13.31887 13.1016,-1.608 5.2586,-2.76814 7.4024,-8.70738 6.0687,-13.71137 6.6953,4.79634 9.6016,6.84929 16.3697,12.49434 z"
       style="fill:#e0ddc6;stroke:none" />
    <path
       sodipodi:nodetypes="cccccsccccccc"
       inkscape:connector-curvature="0"
       id="path3108"
       d="m 2261.1493,210.6421 c 0,5.07084 -2.8645,13.28493 -8.2287,17.85064 -10.2355,-2.16751 -19.3145,3.71211 -17.0447,16.48898 0.9852,3.09066 0.6151,11.71662 -4.9236,15.27799 -9.1712,-27.72936 -32.1867,-29.39272 -47.3711,-28.81859 4.4729,-4.34571 6.097,-6.82679 14.633,-17.2139 5.2295,-6.36354 23.5341,0.42138 13.7541,13.90851 4.9652,5.31185 24.6533,3.75638 26.6984,-13.4869 2.2353,5.46042 4.589,8.6627 6.7901,9.87536 -0.354,-3.94714 2.4237,-7.71826 7.4886,-13.56006 8.2039,-6.63825 8.2039,-16.70267 4.0701,-21.69786 1.2538,-2.52467 2.5593,-4.04613 4.1338,-7.04977 0,10.46525 0,18.77485 0,28.4256 z"
       style="fill:#e0ddc6;stroke:none" />
    <path
       style="fill:#e0ddc6;stroke:none"
       d="m 2252.2572,181.24398 c -6.9027,-1.83188 -21.922,6.68233 -20.2334,20.70177 -10.2355,-8.20019 -33.5702,-11.72206 -48.107,11.38697 -1.5817,2.78763 -5.3257,1.80445 -3.3396,-1.63528 -0.1449,-0.0426 15.6388,-12.77221 14.6464,-25.65088 -0.5422,-7.03494 5.055,-17.13615 14.0907,-17.1403 -13.5574,-17.67193 -52.2823,-1.82664 -38.1854,32.13731 1.1664,3.47138 -2.8763,6.18699 -3.2784,2.28937 2.77,-24.478 -21.4215,-18.35396 -17.2086,-5.34194 2.9447,9.58468 7.7781,8.11179 6.1557,19.33586 -3.7464,16.77099 -27.2784,28.21653 -43.5993,23.34143 -1.4111,0.13466 2.609,-17.76772 10.0663,-25.05774 6.5003,-6.35447 16.6574,-3.20389 14.6829,8.47065 15.1998,-0.82193 19.0302,-18.13891 8.9559,-26.92006 -6.6913,-5.83243 -20.8667,-7.11305 -26.449,3.13155 -1.2618,0.91834 -3.5694,-0.5661 -2.0947,-2.50093 4.8452,-5.56322 17.4641,-12.08762 25.3202,-10.67666 -1.8848,-7.04034 -2.9175,-15.16121 0.072,-22.11489 -8.5358,3.67615 -18.4647,3.85537 -24.0323,2.53641 1.5196,4.06136 -0.9776,17.5706 -7.8113,27.30486 -1.1109,2.03828 -2.693,0.3996 -2.3452,-1.80203 10.7754,-15.45008 4.7465,-31.73661 2.1781,-37.32183 6.0868,-8.06494 17.6027,-13.3301 26.7959,-13.09421 17.5353,0.44996 15.3883,16.88037 2.8645,13.94758 4.7192,14.2603 20.2052,13.46267 26.572,7.54954 4.1785,-3.88067 4.0021,-10.13547 -4.2253,-15.18414 -1.9664,-2.04253 0.5374,-4.84262 2.2883,-2.57955 7.4491,17.06115 41.4391,18.84222 50.1054,-0.0547 20.5088,3.26565 12.8557,34.01733 -9.5853,24.37031 -4.5985,31.23864 46.0765,22.36428 39.2477,-9.60078 4.4772,3.3384 8.3177,13.33299 6.4528,20.17231 z"
       id="path3110"
       inkscape:connector-curvature="0"
       sodipodi:nodetypes="ccccsccccccscsccccccccscccccccc" />
    <path
       sodipodi:nodetypes="ccccc"
       inkscape:connector-curvature="0"
       id="path3919"
       d="m 2075.8629,48.5712 c -29.6776,0 -5.6413,0.219861 -35.3189,0.219861 -9.842,2.298733 -3.8368,18.776602 7.8402,13.235111 11.6617,-4.003518 16.4842,2.001759 21.3066,3.669891 -1.5013,-8.971261 1.3345,-13.82525 6.1721,-17.124863 z"
       style="fill:#e0ddc6;stroke:none" />
    <path
       style="fill:#e0ddc6;stroke:none"
       d="m 2006.3018,48.5712 c -12.9963,0 -17.1514,0 -28.1459,0.219861 0.5188,3.452058 6.8126,6.597337 14.3004,6.729394 8.6743,-0.130159 11.5101,-2.648763 13.8455,-6.949255 z"
       id="path3921"
       inkscape:connector-curvature="0"
       sodipodi:nodetypes="cccc" />
    <path
       sodipodi:nodetypes="cccc"
       inkscape:connector-curvature="0"
       id="path3923"
       d="m 1956.9251,48.5712 c -2.3203,0 -7.8099,0 -10.2969,0 1.4081,1.927525 1.3763,3.380919 1.6226,5.228075 2.4491,-2.544002 4.4968,-4.103693 8.6743,-5.228075 z"
       style="fill:#e0ddc6;stroke:none" />
    <path
       style="fill:#e0ddc6;stroke:none"
       d="m 2030.3614,48.5712 c -5.9924,0.219861 -9.2525,0 -13.8642,0 -2.4072,4.741596 -17.4319,21.644311 -48.2395,17.58978 11.908,8.776376 18.7519,26.180096 18.5898,30.095612 -6.9175,1.262766 -26.147,-6.472875 -31.3039,-12.150333 4.6381,23.762351 -7.1928,37.306661 -20.168,34.586271 l 0,10.54482 c 3.8605,-7.29989 10.5095,-9.7177 17.5364,-8.03522 -9.2406,11.74448 2.7047,20.98641 12.8,17.55146 12.9575,-2.69864 14.9545,-14.22045 14.7855,-20.02883 -0.8921,-10.05177 -12.5624,-6.29196 -9.241,0.66548 -5.0637,3.25978 -9.4964,10.86017 -9.3803,10.52493 -10.4493,-3.52918 -10.3534,-19.54648 1.0775,-25.78508 12.0235,-6.601662 26.9811,-2.01857 30.3643,13.63517 1.7687,-10.77228 9.0903,-16.85663 18.1408,-17.66775 -4.5114,-6.417746 -14.7307,-9.700503 -22.1273,-5.497878 -0.1605,-15.357872 19.109,-26.796852 33.9832,-17.410354 5.3842,4.458996 11.98,5.555313 19.6469,5.682143 2.8576,0.580794 4.0547,-2.752971 0.2395,-2.844251 -36.8697,-1.005403 -20.2264,-28.36878 -12.8397,-31.45597 z"
       id="path3925"
       inkscape:connector-curvature="0"
       sodipodi:nodetypes="cccccccccccccccccccc" />
    <path
       style="fill:#e0ddc6;stroke:none"
       d="m 2076.3537,95.854198 c 2.525,25.025112 -36.2467,26.074132 -33.3609,-1.7255 -5.3759,11.537142 -21.1769,14.715022 -26.0404,8.630152 -9.3278,6.24104 -8.1219,21.69048 9.4686,21.89105 25.6728,2.60925 42.0451,8.18631 50.252,13.1396 -1.1696,-3.92074 -5.2529,-13.85121 -3.4926,-22.15072 1.9289,-9.09423 7.7256,-12.9574 8.9572,-22.52805 1.1096,-17.141231 -18.2578,-18.484271 -23.1679,-7.677146 -3.8062,11.52389 7.779,18.266966 17.384,10.420614 z"
       id="path3927"
       inkscape:connector-curvature="0"
       sodipodi:nodetypes="cccccsccc" />
    <path
       sodipodi:nodetypes="cccscc"
       inkscape:connector-curvature="0"
       id="path3929"
       d="m 2015.5671,134.20761 c -14.0244,2.66107 -18.0586,-4.23352 -21.7351,-9.39629 0.095,8.65325 -5.1017,15.42727 -10.4355,19.91381 12.9031,5.22342 17.0788,-0.7528 22.3947,-5.047 2.8169,-2.27547 5.4868,-3.67228 10.4054,-3.50135 1.9949,0.63681 3.3574,-2.84715 -0.6295,-1.96917 z"
       style="fill:#e0ddc6;stroke:none" />
    <path
       style="fill:#e0ddc6;stroke:none"
       d="m 2091.5897,48.5712 c 3.1249,1.046965 4.8514,3.286158 5.6215,5.391716 -7.5001,0.867172 -9.1435,7.502402 -5.9476,14.900244 2.656,6.147986 1.0117,10.835125 0.2859,15.255078 3.9834,-2.387025 5.3464,-5.003042 6.713,-8.251742 1.3665,3.2487 2.7295,5.864717 6.7129,8.251742 -0.7258,-4.419953 -2.3701,-9.107092 0.2859,-15.255078 3.1959,-7.397842 1.5525,-14.033072 -5.9476,-14.900244 0.7701,-2.105558 2.4966,-4.344751 5.6215,-5.391716 -2.1973,0 -5.1699,0 -6.6727,0 -1.5029,0 -4.4755,0 -6.6728,0 z"
       id="path3931"
       inkscape:connector-curvature="0"
       sodipodi:nodetypes="ccscccscccc" />
    <path
       sodipodi:nodetypes="ccccccccccc"
       inkscape:connector-curvature="0"
       id="path3939"
       d="m 2083.1186,373.32589 c -3.0174,-0.97541 -4.9724,-7.91923 0.4446,-13.63088 14.6527,-23.12114 6.8773,-47.80232 2.2591,-53.19156 2.5715,-4.09861 4.8894,-10.79024 6.0862,-16.09711 3.1938,2.18495 4.6927,3.59876 6.354,6.62638 1.7688,-3.02762 3.1601,-4.44143 6.3539,-6.62638 1.1968,5.30687 3.5147,11.9985 6.0862,16.09711 -4.6182,5.38924 -12.3936,30.07042 2.2591,53.19156 5.417,5.71165 3.462,12.65547 0.4446,13.63088 -1.3225,-10.05311 -12.4973,-10.7723 -15.1438,-4.15545 -2.6466,-6.61685 -13.8214,-5.89766 -15.1439,4.15545 z"
       style="fill:#e0ddc6;stroke:none" />
    <path
       sodipodi:nodetypes="ccccccccc"
       inkscape:connector-curvature="0"
       id="path3941"
       d="m 2108.8314,385.10673 c -5.0629,-0.0264 -9.8667,-4.01144 -10.5689,-8.27993 -0.7023,4.26849 -5.5061,8.25353 -10.569,8.27993 -0.8983,2.40436 -2.651,4.67086 -5.2982,5.9716 2.6472,1.30074 4.3999,3.56724 5.2982,5.9716 5.0629,0.0264 9.8667,4.01144 10.569,8.27993 0.7022,-4.26849 5.506,-8.25358 10.5689,-8.27993 0.8983,-2.40436 2.651,-4.67086 5.2982,-5.9716 -2.6472,-1.30074 -4.3999,-3.56724 -5.2982,-5.9716 z"
       style="fill:#e0ddc6;stroke:none" />
    <path
       sodipodi:nodetypes="cccc"
       inkscape:connector-curvature="0"
       id="path3943"
       d="m 2077.6721,320.69446 c -3.7725,6.83193 -15.0587,19.53523 -20.0324,25.01456 6.8055,-1.18386 13.3182,2.63495 15.4827,9.11484 4.1276,-6.26705 11.5343,-17.3848 4.5497,-34.1294 z"
       style="fill:#e0ddc6;stroke:none" />
    <path
       style="fill:#e0ddc6;stroke:none"
       d="m 2067.941,308.62041 c -8.2577,16.01704 -27.6251,35.44685 -45.6262,46.52265 2.5629,-5.26773 1.1452,-11.54776 -1.5113,-19.62755 13.1549,10.35161 34.9454,-1.07596 30.043,-18.61458 -11.8909,15.23495 -26.4906,1.50523 -21.0594,-9.3565 9.4688,-13.10063 28.4358,-9.81004 38.1538,1.07598 z"
       id="path3945"
       inkscape:connector-curvature="0"
       sodipodi:nodetypes="ccccccc" />
    <path
       style="fill:#e0ddc6;stroke:none"
       d="m 2024.6774,369.24229 c -6.3769,4.63874 -13.4138,7.81537 -19.7582,10.75883 11.0548,0.73518 19.9663,2.15519 27.2025,4.31724 -3.2059,-4.27948 -6.7651,-10.39401 -7.4443,-15.07607 z"
       id="path3947"
       inkscape:connector-curvature="0"
       sodipodi:nodetypes="cccc" />
    <path
       sodipodi:nodetypes="ccccsc"
       inkscape:connector-curvature="0"
       id="path3949"
       d="m 1990.7616,352.09067 c -9.1577,10.839 -28.6175,23.28582 -34.1911,25.87163 15.9682,-1.82531 38.1666,-7.32556 49.1398,-12.98341 -1.3439,-0.4552 -2.5569,-0.95276 -3.8853,-2.16976 7.0531,-2.09903 7.452,-8.70738 4.771,-12.7077 -3.7518,-5.59805 -11.3413,-4.12419 -15.8344,1.98924 z"
       style="fill:#e0ddc6;stroke:none" />
    <path
       style="fill:#e0ddc6;stroke:none"
       d="m 1988.2295,308.70265 c -10.9145,4.25117 -2.0905,13.71151 -4.2385,25.43244 5.4277,-5.33882 13.5721,-7.94042 25.9507,-7.53747 -2.8372,-1.94844 -5.4556,-7.62843 -4.9394,-12.88596 -2.2577,3.08339 -4.3182,4.11692 -7.3506,4.59633 1.864,-7.38008 -3.9629,-11.67824 -9.4222,-9.60534 z"
       id="path3951"
       inkscape:connector-curvature="0"
       sodipodi:nodetypes="cccccc" />
    <path
       sodipodi:nodetypes="cccccc"
       inkscape:connector-curvature="0"
       id="path3953"
       d="m 1935.3756,339.77945 0,39.92567 c 18.6912,-7.18341 26.4842,-24.01473 28.2344,-32.57122 0.8521,-6.16465 -1.7663,-12.10815 -8.1015,-11.56839 -6.7374,0.0969 -9.1527,6.73771 -3.4857,11.09631 -7.9699,4.51032 -16.6472,-2.03964 -16.6472,-6.88237 z"
       style="fill:#e0ddc6;stroke:none" />
    <path
       sodipodi:nodetypes="cccc"
       inkscape:connector-curvature="0"
       id="path3955"
       d="m 1935.3756,288.05407 0,38.60338 c 6.7508,-10.24453 23.2163,-16.11505 35.6349,-1.39221 -2.8545,-23.86729 -29.8611,-23.13047 -35.6349,-37.21117 z"
       style="fill:#e0ddc6;stroke:none" />
    <path
       style="fill:#e0ddc6;stroke:none"
       d="m 1935.3756,252.91899 0,28.80573 c 11.0261,-5.61291 26.9572,1.07537 36.7037,16.51077 -5.1728,-10.71085 -8.6636,-29.3573 -8.0314,-33.98134 -7.3278,2.7843 -23.9123,-3.64124 -28.6723,-11.33516 z"
       id="path3957"
       inkscape:connector-curvature="0"
       sodipodi:nodetypes="ccccc" />
    <path
       sodipodi:nodetypes="csccccc"
       inkscape:connector-curvature="0"
       id="path3959"
       d="m 2073.7635,279.7638 c 1.4185,-10.88959 -8.2882,-12.72025 -12.7088,-8.96785 -2.622,2.22565 -3.9413,8.04572 -0.046,12.68232 4.1501,4.8814 7.078,9.19974 12.856,13.86112 6.9572,-11.42344 11.2587,-33.60483 9.8586,-43.54663 -3.0029,0.6348 -5.3828,0.71018 -9.3733,1.08313 12.9359,9.65363 4.7668,25.37007 -0.586,24.88791 z"
       style="fill:#e0ddc6;stroke:none" />
    <path
       sodipodi:nodetypes="cccc"
       inkscape:connector-curvature="0"
       id="path3961"
       d="m 1935.3756,84.756302 c 0,12.9963 0,15.581708 0,26.668538 3.2212,-3.47351 5.663,-7.92061 5.9336,-14.392729 -0.361,-7.058441 -3.7568,-10.771422 -5.9336,-12.275809 z"
       style="fill:#e0ddc6;stroke:none" />
    <path
       style="fill:#e0ddc6;stroke:none"
       d="m 1935.3756,69.534808 c 0,-2.3203 0,-7.8099 0,-10.2969 1.9275,1.4081 3.3809,1.3763 5.2281,1.6226 -2.544,2.4491 -4.1037,4.496799 -5.2281,8.6743 z"
       id="path3963"
       inkscape:connector-curvature="0"
       sodipodi:nodetypes="cccc" />
    <path
       style="fill:#e0ddc6;stroke:none"
       d="m 1935.3756,144.13863 c 0,12.9963 0,11.23092 0,22.31775 2.724,-5.77321 6.5953,-10.90401 10.4087,-14.64135 -3.2201,-1.40241 -7.859,-4.24523 -10.4087,-7.6764 z"
       id="path3965"
       inkscape:connector-curvature="0"
       sodipodi:nodetypes="cccc" />
    <path
       sodipodi:nodetypes="cccc"
       inkscape:connector-curvature="0"
       id="path3967"
       d="m 1935.3756,242.3234 c 0,-2.3203 0,-8.80705 0,-11.29405 1.1605,2.09844 1.6167,2.91038 2.6969,3.92371 -1.3935,1.83547 -1.8026,3.95988 -2.6969,7.37034 z"
       style="fill:#e0ddc6;stroke:none" />
    <path
       sodipodi:nodetypes="ccccsccccccc"
       inkscape:connector-curvature="0"
       id="path3969"
       d="m 1981.8792,294.60318 c 6.6023,-7.13957 22.8925,-4.66683 24.7648,11.07436 2.8432,-10.60345 15.5822,-14.64086 24.8021,-14.90795 2.3978,-0.19389 2.8843,-2.44625 -0.3374,-2.90286 -10.9518,3.60571 -24.2086,-0.4951 -30.9776,-4.55053 -7.0656,-4.2331 -11.6069,-3.99607 -20.5275,-5.52829 8.7289,-16.92267 42.0502,-24.80982 57.5277,0.35446 1.5932,3.10444 4.6876,1.00578 2.0448,-2.05177 -8.0392,-13.66554 5.086,-22.59035 11.9482,-23.86745 -10.6814,-3.25153 -23.7132,-8.45676 -28.2188,-13.0102 -18.3346,8.66621 -15.4889,20.69162 -32.0827,22.39993 -4.7407,-20.01519 -26.4573,10.52893 -8.9436,32.9903 z"
       style="fill:#e0ddc6;stroke:none" />
    <path
       style="fill:#e0ddc6;stroke:none"
       d="m 2032.2727,365.42835 c 4.2246,-0.53595 7.1132,-1.13686 10.5727,-0.89295 1.716,9.88419 14.9483,21.6471 32.7465,19.8032 -4.3745,-3.35845 -8.8331,-6.9911 -7.7792,-16.08522 1.6415,-14.16512 -15.2683,-13.31887 -13.1016,-1.608 -5.2586,-2.76814 -7.4024,-8.70738 -6.0687,-13.71137 -6.6953,4.79634 -9.6016,6.84929 -16.3697,12.49434 z"
       id="path3971"
       inkscape:connector-curvature="0"
       sodipodi:nodetypes="cccsccc" />
    <path
       style="fill:#e0ddc6;stroke:none"
       d="m 1935.3756,210.6421 c 0,5.07084 2.8645,13.28493 8.2287,17.85064 10.2355,-2.16751 19.3145,3.71211 17.0447,16.48898 -0.9852,3.09066 -0.6151,11.71662 4.9236,15.27799 9.1712,-27.72936 32.1867,-29.39272 47.3711,-28.81859 -4.4729,-4.34571 -6.097,-6.82679 -14.633,-17.2139 -5.2295,-6.36354 -23.5341,0.42138 -13.7541,13.90851 -4.9652,5.31185 -24.6533,3.75638 -26.6984,-13.4869 -2.2353,5.46042 -4.589,8.6627 -6.7901,9.87536 0.354,-3.94714 -2.4237,-7.71826 -7.4886,-13.56006 -8.2039,-6.63825 -8.2039,-16.70267 -4.0701,-21.69786 -1.2538,-2.52467 -2.5593,-4.04613 -4.1338,-7.04977 0,10.46525 0,18.77485 0,28.4256 z"
       id="path3973"
       inkscape:connector-curvature="0"
       sodipodi:nodetypes="cccccsccccccc" />
    <path
       sodipodi:nodetypes="ccccsccccccscsccccccccscccccccc"
       inkscape:connector-curvature="0"
       id="path3975"
       d="m 1944.2677,181.24398 c 6.9027,-1.83188 21.922,6.68233 20.2334,20.70177 10.2355,-8.20019 33.5702,-11.72206 48.107,11.38697 1.5817,2.78763 5.3257,1.80445 3.3396,-1.63528 0.1449,-0.0426 -15.6388,-12.77221 -14.6464,-25.65088 0.5422,-7.03494 -5.055,-17.13615 -14.0907,-17.1403 13.5574,-17.67193 52.2823,-1.82664 38.1854,32.13731 -1.1664,3.47138 2.8763,6.18699 3.2784,2.28937 -2.77,-24.478 21.4215,-18.35396 17.2086,-5.34194 -2.9447,9.58468 -7.7781,8.11179 -6.1557,19.33586 3.7464,16.77099 27.2784,28.21653 43.5993,23.34143 1.4111,0.13466 -2.609,-17.76772 -10.0663,-25.05774 -6.5003,-6.35447 -16.6574,-3.20389 -14.6829,8.47065 -15.1998,-0.82193 -19.0302,-18.13891 -8.9559,-26.92006 6.6913,-5.83243 20.8667,-7.11305 26.449,3.13155 1.2618,0.91834 3.5694,-0.5661 2.0947,-2.50093 -4.8452,-5.56322 -17.4641,-12.08762 -25.3202,-10.67666 1.8848,-7.04034 2.9175,-15.16121 -0.072,-22.11489 8.5358,3.67615 18.4647,3.85537 24.0323,2.53641 -1.5196,4.06136 0.9776,17.5706 7.8113,27.30486 1.1109,2.03828 2.693,0.3996 2.3452,-1.80203 -10.7754,-15.45008 -4.7465,-31.73661 -2.1781,-37.32183 -6.0868,-8.06494 -17.6027,-13.3301 -26.7959,-13.09421 -17.5353,0.44996 -15.3883,16.88037 -2.8645,13.94758 -4.7192,14.2603 -20.2052,13.46267 -26.572,7.54954 -4.1785,-3.88067 -4.0021,-10.13547 4.2253,-15.18414 1.9664,-2.04253 -0.5374,-4.84262 -2.2883,-2.57955 -7.4491,17.06115 -41.4391,18.84222 -50.1054,-0.0547 -20.5088,3.26565 -12.8557,34.01733 9.5853,24.37031 4.5985,31.23864 -46.0765,22.36428 -39.2477,-9.60078 -4.4772,3.3384 -8.3177,13.33299 -6.4528,20.17231 z"
       style="fill:#e0ddc6;stroke:none" />
    <path
       style="fill:#e0ddc6;stroke:none"
       d="m 2197.2884,382.02622 c 3.8124,3.53035 7.0483,6.45686 13.0561,9.05211 -6.0078,2.59525 -9.2437,5.52176 -13.0561,9.05211 8.7955,-2.91118 27.0039,-7.56254 36.8034,-9.05211 -9.7995,-1.48957 -28.0079,-6.14093 -36.8034,-9.05211 z"
       id="path3990"
       inkscape:connector-curvature="0"
       sodipodi:nodetypes="ccccc" />
    <path
       sodipodi:nodetypes="ccccc"
       inkscape:connector-curvature="0"
       id="path3994"
       d="m 2120.662,733.58546 c 29.6776,0 5.6413,-0.21986 35.3189,-0.21986 9.842,-2.29873 3.8368,-18.7766 -7.8402,-13.23511 -11.6617,4.00352 -16.4842,-2.00176 -21.3066,-3.66989 1.5013,8.97126 -1.3345,13.82525 -6.1721,17.12486 z"
       style="fill:#e0ddc6;stroke:none" />
    <path
       style="fill:#e0ddc6;stroke:none"
       d="m 2190.2231,733.58546 c 12.9963,0 17.1514,0 28.1459,-0.21986 -0.5188,-3.45206 -6.8126,-6.59734 -14.3004,-6.72939 -8.6743,0.13016 -11.5101,2.64876 -13.8455,6.94925 z"
       id="path3996"
       inkscape:connector-curvature="0"
       sodipodi:nodetypes="cccc" />
    <path
       sodipodi:nodetypes="cccc"
       inkscape:connector-curvature="0"
       id="path3998"
       d="m 2239.5998,733.58546 c 2.3203,0 7.8099,0 10.2969,0 -1.4081,-1.92752 -1.3763,-3.38092 -1.6226,-5.22807 -2.4491,2.544 -4.4968,4.10369 -8.6743,5.22807 z"
       style="fill:#e0ddc6;stroke:none" />
    <path
       style="fill:#e0ddc6;stroke:none"
       d="m 2166.1635,733.58546 c 5.9924,-0.21986 9.2525,0 13.8642,0 2.4072,-4.74159 17.4319,-21.64431 48.2395,-17.58978 -11.908,-8.77637 -18.7519,-26.18009 -18.5898,-30.09561 6.9175,-1.26277 26.147,6.47288 31.3039,12.15033 -4.6381,-23.76235 7.1928,-37.30666 20.168,-34.58627 l 0,-10.54482 c -3.8605,7.29989 -10.5095,9.7177 -17.5364,8.03522 9.2406,-11.74448 -2.7047,-20.98641 -12.8,-17.55146 -12.9575,2.69864 -14.9545,14.22045 -14.7855,20.02883 0.8921,10.05177 12.5624,6.29196 9.241,-0.66548 5.0637,-3.25978 9.4964,-10.86017 9.3803,-10.52493 10.4493,3.52918 10.3534,19.54648 -1.0775,25.78508 -12.0235,6.60166 -26.9811,2.01857 -30.3643,-13.63517 -1.7687,10.77228 -9.0903,16.85663 -18.1408,17.66775 4.5114,6.41775 14.7307,9.70051 22.1273,5.49788 0.1605,15.35787 -19.109,26.79685 -33.9832,17.41035 -5.3842,-4.45899 -11.98,-5.55531 -19.6469,-5.68214 -2.8576,-0.58079 -4.0547,2.75297 -0.2395,2.84425 36.8697,1.00541 20.2264,28.36878 12.8397,31.45597 z"
       id="path4000"
       inkscape:connector-curvature="0"
       sodipodi:nodetypes="cccccccccccccccccccc" />
    <path
       style="fill:#e0ddc6;stroke:none"
       d="m 2120.1712,686.30246 c -2.525,-25.02511 36.2467,-26.07413 33.3609,1.7255 5.3759,-11.53714 21.1769,-14.71502 26.0404,-8.63015 9.3278,-6.24104 8.1219,-21.69048 -9.4686,-21.89105 -25.6728,-2.60925 -42.0451,-8.18631 -50.252,-13.1396 1.1696,3.92074 5.2529,13.85121 3.4926,22.15072 -1.9289,9.09423 -7.7256,12.9574 -8.9572,22.52805 -1.1096,17.14123 18.2578,18.48427 23.1679,7.67715 3.8062,-11.52389 -7.779,-18.26697 -17.384,-10.42062 z"
       id="path4002"
       inkscape:connector-curvature="0"
       sodipodi:nodetypes="cccccsccc" />
    <path
       sodipodi:nodetypes="cccscc"
       inkscape:connector-curvature="0"
       id="path4004"
       d="m 2180.9578,647.94905 c 14.0244,-2.66107 18.0586,4.23352 21.7351,9.39629 -0.095,-8.65325 5.1017,-15.42727 10.4355,-19.91381 -12.9031,-5.22342 -17.0788,0.7528 -22.3947,5.047 -2.8169,2.27547 -5.4868,3.67228 -10.4054,3.50135 -1.9949,-0.63681 -3.3574,2.84715 0.6295,1.96917 z"
       style="fill:#e0ddc6;stroke:none" />
    <path
       sodipodi:nodetypes="ccccc"
       inkscape:connector-curvature="0"
       id="path4006"
       d="m 2107.6022,671.63571 c 0.5539,6.37321 -2.7891,14.56276 -9.3397,15.72655 -6.5507,-1.16379 -9.8937,-9.35334 -9.3398,-15.72655 6.5428,-0.10507 9.2932,-4.35914 9.3398,-8.11525 0.047,3.75611 2.7969,8.01018 9.3397,8.11525 z"
       style="fill:#e0ddc6;stroke:none" />
    <path
       style="fill:#e0ddc6;stroke:none"
       d="m 2112.8196,650.43327 c -0.5541,-6.62342 -5.5343,-14.70081 -8.5708,-14.99311 -1.7773,-0.17109 -4.6551,3.15866 -5.9863,6.55177 -1.3313,-3.39311 -4.2091,-6.72286 -5.9864,-6.55177 -3.0365,0.2923 -8.0167,8.36969 -8.5708,14.99311 -0.5539,8.54713 8.2782,12.44318 14.5572,5.6178 6.2789,6.82538 15.111,2.92933 14.5571,-5.6178 z"
       id="path4008"
       inkscape:connector-curvature="0"
       sodipodi:nodetypes="cscsccc" />
    <path
       style="fill:#e0ddc6;stroke:none"
       d="m 2106.4498,569.88552 c -1.8235,-2.57448 -5.4519,-9.62721 -8.1873,-23.37071 -2.7355,13.7435 -6.3639,20.79623 -8.1874,23.37071 3.6715,3.30017 5.8073,6.16676 8.1874,11.17186 2.38,-5.0051 4.5158,-7.87169 8.1873,-11.17186 z"
       id="path4010"
       inkscape:connector-curvature="0"
       sodipodi:nodetypes="ccccc" />
    <path
       sodipodi:nodetypes="cccc"
       inkscape:connector-curvature="0"
       id="path4012"
       d="m 2118.8528,461.4622 c 3.7725,-6.83193 15.0587,-19.53523 20.0324,-25.01456 -6.8055,1.18386 -13.3182,-2.63495 -15.4827,-9.11484 -4.1276,6.26705 -11.5343,17.3848 -4.5497,34.1294 z"
       style="fill:#e0ddc6;stroke:none" />
    <path
       style="fill:#e0ddc6;stroke:none"
       d="m 2128.5839,473.53625 c 8.2577,-16.01704 27.6251,-35.44685 45.6262,-46.52265 -2.5629,5.26773 -1.1452,11.54776 1.5113,19.62755 -13.1549,-10.35161 -34.9454,1.07596 -30.043,18.61458 11.8909,-15.23495 26.4906,-1.50523 21.0594,9.3565 -9.4688,13.10063 -28.4358,9.81004 -38.1538,-1.07598 z"
       id="path4014"
       inkscape:connector-curvature="0"
       sodipodi:nodetypes="ccccccc" />
    <path
       style="fill:#e0ddc6;stroke:none"
       d="m 2171.8475,412.91437 c 6.3769,-4.63874 13.4138,-7.81537 19.7582,-10.75883 -11.0548,-0.73518 -19.9663,-2.15519 -27.2025,-4.31724 3.2059,4.27948 6.7651,10.39401 7.4443,15.07607 z"
       id="path4016"
       inkscape:connector-curvature="0"
       sodipodi:nodetypes="cccc" />
    <path
       sodipodi:nodetypes="ccccsc"
       inkscape:connector-curvature="0"
       id="path4018"
       d="m 2205.7633,430.06599 c 9.1577,-10.839 28.6175,-23.28582 34.1911,-25.87163 -15.9682,1.82531 -38.1666,7.32556 -49.1398,12.98341 1.3439,0.4552 2.5569,0.95276 3.8853,2.16976 -7.0531,2.09903 -7.452,8.70738 -4.771,12.7077 3.7518,5.59805 11.3413,4.12419 15.8344,-1.98924 z"
       style="fill:#e0ddc6;stroke:none" />
    <path
       style="fill:#e0ddc6;stroke:none"
       d="m 2208.2954,473.45401 c 10.9145,-4.25117 2.0905,-13.71151 4.2385,-25.43244 -5.4277,5.33882 -13.5721,7.94042 -25.9507,7.53747 2.8372,1.94844 5.4556,7.62843 4.9394,12.88596 2.2577,-3.08339 4.3182,-4.11692 7.3506,-4.59633 -1.864,7.38008 3.9629,11.67824 9.4222,9.60534 z"
       id="path4020"
       inkscape:connector-curvature="0"
       sodipodi:nodetypes="cccccc" />
    <path
       sodipodi:nodetypes="cccccc"
       inkscape:connector-curvature="0"
       id="path4022"
       d="m 2261.1493,442.37721 0,-39.92567 c -18.6912,7.18341 -26.4842,24.01473 -28.2344,32.57122 -0.8521,6.16465 1.7663,12.10815 8.1015,11.56839 6.7374,-0.0969 9.1527,-6.73771 3.4857,-11.09631 7.9699,-4.51032 16.6472,2.03964 16.6472,6.88237 z"
       style="fill:#e0ddc6;stroke:none" />
    <path
       sodipodi:nodetypes="cccc"
       inkscape:connector-curvature="0"
       id="path4024"
       d="m 2261.1493,494.10259 0,-38.60338 c -6.7508,10.24453 -23.2163,16.11505 -35.6349,1.39221 2.8545,23.86729 29.8611,23.13047 35.6349,37.21117 z"
       style="fill:#e0ddc6;stroke:none" />
    <path
       style="fill:#e0ddc6;stroke:none"
       d="m 2261.1493,529.23767 0,-28.80573 c -11.0261,5.61291 -26.9572,-1.07537 -36.7037,-16.51077 5.1728,10.71085 8.6636,29.3573 8.0314,33.98134 7.3278,-2.7843 23.9123,3.64124 28.6723,11.33516 z"
       id="path4026"
       inkscape:connector-curvature="0"
       sodipodi:nodetypes="ccccc" />
    <path
       sodipodi:nodetypes="csccccc"
       inkscape:connector-curvature="0"
       id="path4028"
       d="m 2122.7614,502.39286 c -1.4185,10.88959 8.2882,12.72025 12.7088,8.96785 2.622,-2.22565 3.9413,-8.04572 0.046,-12.68232 -4.1501,-4.8814 -7.078,-9.19974 -12.856,-13.86112 -6.9572,11.42344 -11.2587,33.60483 -9.8586,43.54663 3.0029,-0.6348 5.3828,-0.71018 9.3733,-1.08313 -12.9359,-9.65363 -4.7668,-25.37007 0.586,-24.88791 z"
       style="fill:#e0ddc6;stroke:none" />
    <path
       sodipodi:nodetypes="cccc"
       inkscape:connector-curvature="0"
       id="path4030"
       d="m 2261.1493,697.40036 c 0,-12.9963 0,-15.58171 0,-26.66854 -3.2212,3.47351 -5.663,7.92061 -5.9336,14.39273 0.361,7.05844 3.7568,10.77142 5.9336,12.27581 z"
       style="fill:#e0ddc6;stroke:none" />
    <path
       style="fill:#e0ddc6;stroke:none"
       d="m 2261.1493,712.62185 c 0,2.3203 0,7.8099 0,10.2969 -1.9275,-1.4081 -3.3809,-1.3763 -5.2281,-1.6226 2.544,-2.4491 4.1037,-4.49679 5.2281,-8.6743 z"
       id="path4032"
       inkscape:connector-curvature="0"
       sodipodi:nodetypes="cccc" />
    <path
       style="fill:#e0ddc6;stroke:none"
       d="m 2261.1493,638.01803 c 0,-12.9963 0,-11.23092 0,-22.31775 -2.724,5.77321 -6.5953,10.90401 -10.4087,14.64135 3.2201,1.40241 7.859,4.24523 10.4087,7.6764 z"
       id="path4034"
       inkscape:connector-curvature="0"
       sodipodi:nodetypes="cccc" />
    <path
       sodipodi:nodetypes="cccc"
       inkscape:connector-curvature="0"
       id="path4036"
       d="m 2261.1493,539.83326 c 0,2.3203 0,8.80705 0,11.29405 -1.1605,-2.09844 -1.6167,-2.91038 -2.6969,-3.92371 1.3935,-1.83547 1.8026,-3.95988 2.6969,-7.37034 z"
       style="fill:#e0ddc6;stroke:none" />
    <path
       sodipodi:nodetypes="ccccsccccccc"
       inkscape:connector-curvature="0"
       id="path4038"
       d="m 2214.6457,487.55348 c -6.6023,7.13957 -22.8925,4.66683 -24.7648,-11.07436 -2.8432,10.60345 -15.5822,14.64086 -24.8021,14.90795 -2.3978,0.19389 -2.8843,2.44625 0.3374,2.90286 10.9518,-3.60571 24.2086,0.4951 30.9776,4.55053 7.0656,4.2331 11.6069,3.99607 20.5275,5.52829 -8.7289,16.92267 -42.0502,24.80982 -57.5277,-0.35446 -1.5932,-3.10444 -4.6876,-1.00578 -2.0448,2.05177 8.0392,13.66554 -5.086,22.59035 -11.9482,23.86745 10.6814,3.25153 23.7132,8.45676 28.2188,13.0102 18.3346,-8.66621 15.4889,-20.69162 32.0827,-22.39993 4.7407,20.01519 26.4573,-10.52893 8.9436,-32.9903 z"
       style="fill:#e0ddc6;stroke:none" />
    <path
       style="fill:#e0ddc6;stroke:none"
       d="m 2164.2522,416.72831 c -4.2246,0.53595 -7.1132,1.13686 -10.5727,0.89295 -1.716,-9.88419 -14.9483,-21.6471 -32.7465,-19.8032 4.3745,3.35845 8.8331,6.9911 7.7792,16.08522 -1.6415,14.16512 15.2683,13.31887 13.1016,1.608 5.2586,2.76814 7.4024,8.70738 6.0687,13.71137 6.6953,-4.79634 9.6016,-6.84929 16.3697,-12.49434 z"
       id="path4040"
       inkscape:connector-curvature="0"
       sodipodi:nodetypes="cccsccc" />
    <path
       style="fill:#e0ddc6;stroke:none"
       d="m 2261.1493,571.51456 c 0,-5.07084 -2.8645,-13.28493 -8.2287,-17.85064 -10.2355,2.16751 -19.3145,-3.71211 -17.0447,-16.48898 0.9852,-3.09066 0.6151,-11.71662 -4.9236,-15.27799 -9.1712,27.72936 -32.1867,29.39272 -47.3711,28.81859 4.4729,4.34571 6.097,6.82679 14.633,17.2139 5.2295,6.36354 23.5341,-0.42138 13.7541,-13.90851 4.9652,-5.31185 24.6533,-3.75638 26.6984,13.4869 2.2353,-5.46042 4.589,-8.6627 6.7901,-9.87536 -0.354,3.94714 2.4237,7.71826 7.4886,13.56006 8.2039,6.63825 8.2039,16.70267 4.0701,21.69786 1.2538,2.52467 2.5593,4.04613 4.1338,7.04977 0,-10.46525 0,-18.77485 0,-28.4256 z"
       id="path4042"
       inkscape:connector-curvature="0"
       sodipodi:nodetypes="cccccsccccccc" />
    <path
       sodipodi:nodetypes="ccccsccccccscsccccccccscccccccc"
       inkscape:connector-curvature="0"
       id="path4044"
       d="m 2252.2572,600.91268 c -6.9027,1.83188 -21.922,-6.68233 -20.2334,-20.70177 -10.2355,8.20019 -33.5702,11.72206 -48.107,-11.38697 -1.5817,-2.78763 -5.3257,-1.80445 -3.3396,1.63528 -0.1449,0.0426 15.6388,12.77221 14.6464,25.65088 -0.5422,7.03494 5.055,17.13615 14.0907,17.1403 -13.5574,17.67193 -52.2823,1.82664 -38.1854,-32.13731 1.1664,-3.47138 -2.8763,-6.18699 -3.2784,-2.28937 2.77,24.478 -21.4215,18.35396 -17.2086,5.34194 2.9447,-9.58468 7.7781,-8.11179 6.1557,-19.33586 -3.7464,-16.77099 -27.2784,-28.21653 -43.5993,-23.34143 -1.4111,-0.13466 2.609,17.76772 10.0663,25.05774 6.5003,6.35447 16.6574,3.20389 14.6829,-8.47065 15.1998,0.82193 19.0302,18.13891 8.9559,26.92006 -6.6913,5.83243 -20.8667,7.11305 -26.449,-3.13155 -1.2618,-0.91834 -3.5694,0.5661 -2.0947,2.50093 4.8452,5.56322 17.4641,12.08762 25.3202,10.67666 -1.8848,7.04034 -2.9175,15.16121 0.072,22.11489 -8.5358,-3.67615 -18.4647,-3.85537 -24.0323,-2.53641 1.5196,-4.06136 -0.9776,-17.5706 -7.8113,-27.30486 -1.1109,-2.03828 -2.693,-0.3996 -2.3452,1.80203 10.7754,15.45008 4.7465,31.73661 2.1781,37.32183 6.0868,8.06494 17.6027,13.3301 26.7959,13.09421 17.5353,-0.44996 15.3883,-16.88037 2.8645,-13.94758 4.7192,-14.2603 20.2052,-13.46267 26.572,-7.54954 4.1785,3.88067 4.0021,10.13547 -4.2253,15.18414 -1.9664,2.04253 0.5374,4.84262 2.2883,2.57955 7.4491,-17.06115 41.4391,-18.84222 50.1054,0.0547 20.5088,-3.26565 12.8557,-34.01733 -9.5853,-24.37031 -4.5985,-31.23864 46.0765,-22.36428 39.2477,9.60078 4.4772,-3.3384 8.3177,-13.33299 6.4528,-20.17231 z"
       style="fill:#e0ddc6;stroke:none" />
    <path
       style="fill:#e0ddc6;stroke:none"
       d="m 2075.8629,733.58546 c -29.6776,0 -5.6413,-0.21986 -35.3189,-0.21986 -9.842,-2.29873 -3.8368,-18.7766 7.8402,-13.23511 11.6617,4.00352 16.4842,-2.00176 21.3066,-3.66989 -1.5013,8.97126 1.3345,13.82525 6.1721,17.12486 z"
       id="path4046"
       inkscape:connector-curvature="0"
       sodipodi:nodetypes="ccccc" />
    <path
       sodipodi:nodetypes="cccc"
       inkscape:connector-curvature="0"
       id="path4048"
       d="m 2006.3018,733.58546 c -12.9963,0 -17.1514,0 -28.1459,-0.21986 0.5188,-3.45206 6.8126,-6.59734 14.3004,-6.72939 8.6743,0.13016 11.5101,2.64876 13.8455,6.94925 z"
       style="fill:#e0ddc6;stroke:none" />
    <path
       style="fill:#e0ddc6;stroke:none"
       d="m 1956.9251,733.58546 c -2.3203,0 -7.8099,0 -10.2969,0 1.4081,-1.92752 1.3763,-3.38092 1.6226,-5.22807 2.4491,2.544 4.4968,4.10369 8.6743,5.22807 z"
       id="path4050"
       inkscape:connector-curvature="0"
       sodipodi:nodetypes="cccc" />
    <path
       sodipodi:nodetypes="cccccccccccccccccccc"
       inkscape:connector-curvature="0"
       id="path4052"
       d="m 2030.3614,733.58546 c -5.9924,-0.21986 -9.2525,0 -13.8642,0 -2.4072,-4.74159 -17.4319,-21.64431 -48.2395,-17.58978 11.908,-8.77637 18.7519,-26.18009 18.5898,-30.09561 -6.9175,-1.26277 -26.147,6.47288 -31.3039,12.15033 4.6381,-23.76235 -7.1928,-37.30666 -20.168,-34.58627 l 0,-10.54482 c 3.8605,7.29989 10.5095,9.7177 17.5364,8.03522 -9.2406,-11.74448 2.7047,-20.98641 12.8,-17.55146 12.9575,2.69864 14.9545,14.22045 14.7855,20.02883 -0.8921,10.05177 -12.5624,6.29196 -9.241,-0.66548 -5.0637,-3.25978 -9.4964,-10.86017 -9.3803,-10.52493 -10.4493,3.52918 -10.3534,19.54648 1.0775,25.78508 12.0235,6.60166 26.9811,2.01857 30.3643,-13.63517 1.7687,10.77228 9.0903,16.85663 18.1408,17.66775 -4.5114,6.41775 -14.7307,9.70051 -22.1273,5.49788 -0.1605,15.35787 19.109,26.79685 33.9832,17.41035 5.3842,-4.45899 11.98,-5.55531 19.6469,-5.68214 2.8576,-0.58079 4.0547,2.75297 0.2395,2.84425 -36.8697,1.00541 -20.2264,28.36878 -12.8397,31.45597 z"
       style="fill:#e0ddc6;stroke:none" />
    <path
       sodipodi:nodetypes="cccccsccc"
       inkscape:connector-curvature="0"
       id="path4054"
       d="m 2076.3537,686.30246 c 2.525,-25.02511 -36.2467,-26.07413 -33.3609,1.7255 -5.3759,-11.53714 -21.1769,-14.71502 -26.0404,-8.63015 -9.3278,-6.24104 -8.1219,-21.69048 9.4686,-21.89105 25.6728,-2.60925 42.0451,-8.18631 50.252,-13.1396 -1.1696,3.92074 -5.2529,13.85121 -3.4926,22.15072 1.9289,9.09423 7.7256,12.9574 8.9572,22.52805 1.1096,17.14123 -18.2578,18.48427 -23.1679,7.67715 -3.8062,-11.52389 7.779,-18.26697 17.384,-10.42062 z"
       style="fill:#e0ddc6;stroke:none" />
    <path
       style="fill:#e0ddc6;stroke:none"
       d="m 2015.5671,647.94905 c -14.0244,-2.66107 -18.0586,4.23352 -21.7351,9.39629 0.095,-8.65325 -5.1017,-15.42727 -10.4355,-19.91381 12.9031,-5.22342 17.0788,0.7528 22.3947,5.047 2.8169,2.27547 5.4868,3.67228 10.4054,3.50135 1.9949,-0.63681 3.3574,2.84715 -0.6295,1.96917 z"
       id="path4056"
       inkscape:connector-curvature="0"
       sodipodi:nodetypes="cccscc" />
    <path
       sodipodi:nodetypes="ccscccscccc"
       inkscape:connector-curvature="0"
       id="path4058"
       d="m 2091.5897,733.58546 c 3.1249,-1.04696 4.8514,-3.28616 5.6215,-5.39171 -7.5001,-0.86718 -9.1435,-7.50241 -5.9476,-14.90025 2.656,-6.14798 1.0117,-10.83512 0.2859,-15.25508 3.9834,2.38703 5.3464,5.00305 6.713,8.25175 1.3665,-3.2487 2.7295,-5.86472 6.7129,-8.25175 -0.7258,4.41996 -2.3701,9.1071 0.2859,15.25508 3.1959,7.39784 1.5525,14.03307 -5.9476,14.90025 0.7701,2.10555 2.4966,4.34475 5.6215,5.39171 -2.1973,0 -5.1699,0 -6.6727,0 -1.5029,0 -4.4755,0 -6.6728,0 z"
       style="fill:#e0ddc6;stroke:none" />
    <path
       style="fill:#e0ddc6;stroke:none"
       d="m 2083.1186,408.83077 c -3.0174,0.97541 -4.9724,7.91923 0.4446,13.63088 14.6527,23.12114 6.8773,47.80232 2.2591,53.19156 2.5715,4.09861 4.8894,10.79024 6.0862,16.09711 3.1938,-2.18495 4.6927,-3.59876 6.354,-6.62638 1.7688,3.02762 3.1601,4.44143 6.3539,6.62638 1.1968,-5.30687 3.5147,-11.9985 6.0862,-16.09711 -4.6182,-5.38924 -12.3936,-30.07042 2.2591,-53.19156 5.417,-5.71165 3.462,-12.65547 0.4446,-13.63088 -1.3225,10.05311 -12.4973,10.7723 -15.1438,4.15545 -2.6466,6.61685 -13.8214,5.89766 -15.1439,-4.15545 z"
       id="path4060"
       inkscape:connector-curvature="0"
       sodipodi:nodetypes="ccccccccccc" />
    <path
       style="fill:#e0ddc6;stroke:none"
       d="m 2077.6721,461.4622 c -3.7725,-6.83193 -15.0587,-19.53523 -20.0324,-25.01456 6.8055,1.18386 13.3182,-2.63495 15.4827,-9.11484 4.1276,6.26705 11.5343,17.3848 4.5497,34.1294 z"
       id="path4064"
       inkscape:connector-curvature="0"
       sodipodi:nodetypes="cccc" />
    <path
       sodipodi:nodetypes="ccccccc"
       inkscape:connector-curvature="0"
       id="path4066"
       d="m 2067.941,473.53625 c -8.2577,-16.01704 -27.6251,-35.44685 -45.6262,-46.52265 2.5629,5.26773 1.1452,11.54776 -1.5113,19.62755 13.1549,-10.35161 34.9454,1.07596 30.043,18.61458 -11.8909,-15.23495 -26.4906,-1.50523 -21.0594,9.3565 9.4688,13.10063 28.4358,9.81004 38.1538,-1.07598 z"
       style="fill:#e0ddc6;stroke:none" />
    <path
       sodipodi:nodetypes="cccc"
       inkscape:connector-curvature="0"
       id="path4068"
       d="m 2024.6774,412.91437 c -6.3769,-4.63874 -13.4138,-7.81537 -19.7582,-10.75883 11.0548,-0.73518 19.9663,-2.15519 27.2025,-4.31724 -3.2059,4.27948 -6.7651,10.39401 -7.4443,15.07607 z"
       style="fill:#e0ddc6;stroke:none" />
    <path
       style="fill:#e0ddc6;stroke:none"
       d="m 1990.7616,430.06599 c -9.1577,-10.839 -28.6175,-23.28582 -34.1911,-25.87163 15.9682,1.82531 38.1666,7.32556 49.1398,12.98341 -1.3439,0.4552 -2.5569,0.95276 -3.8853,2.16976 7.0531,2.09903 7.452,8.70738 4.771,12.7077 -3.7518,5.59805 -11.3413,4.12419 -15.8344,-1.98924 z"
       id="path4070"
       inkscape:connector-curvature="0"
       sodipodi:nodetypes="ccccsc" />
    <path
       sodipodi:nodetypes="cccccc"
       inkscape:connector-curvature="0"
       id="path4072"
       d="m 1988.2295,473.45401 c -10.9145,-4.25117 -2.0905,-13.71151 -4.2385,-25.43244 5.4277,5.33882 13.5721,7.94042 25.9507,7.53747 -2.8372,1.94844 -5.4556,7.62843 -4.9394,12.88596 -2.2577,-3.08339 -4.3182,-4.11692 -7.3506,-4.59633 1.864,7.38008 -3.9629,11.67824 -9.4222,9.60534 z"
       style="fill:#e0ddc6;stroke:none" />
    <path
       style="fill:#e0ddc6;stroke:none"
       d="m 1935.3756,442.37721 0,-39.92567 c 18.6912,7.18341 26.4842,24.01473 28.2344,32.57122 0.8521,6.16465 -1.7663,12.10815 -8.1015,11.56839 -6.7374,-0.0969 -9.1527,-6.73771 -3.4857,-11.09631 -7.9699,-4.51032 -16.6472,2.03964 -16.6472,6.88237 z"
       id="path4074"
       inkscape:connector-curvature="0"
       sodipodi:nodetypes="cccccc" />
    <path
       style="fill:#e0ddc6;stroke:none"
       d="m 1935.3756,494.10259 0,-38.60338 c 6.7508,10.24453 23.2163,16.11505 35.6349,1.39221 -2.8545,23.86729 -29.8611,23.13047 -35.6349,37.21117 z"
       id="path4076"
       inkscape:connector-curvature="0"
       sodipodi:nodetypes="cccc" />
    <path
       sodipodi:nodetypes="ccccc"
       inkscape:connector-curvature="0"
       id="path4078"
       d="m 1935.3756,529.23767 0,-28.80573 c 11.0261,5.61291 26.9572,-1.07537 36.7037,-16.51077 -5.1728,10.71085 -8.6636,29.3573 -8.0314,33.98134 -7.3278,-2.7843 -23.9123,3.64124 -28.6723,11.33516 z"
       style="fill:#e0ddc6;stroke:none" />
    <path
       style="fill:#e0ddc6;stroke:none"
       d="m 2073.7635,502.39286 c 1.4185,10.88959 -8.2882,12.72025 -12.7088,8.96785 -2.622,-2.22565 -3.9413,-8.04572 -0.046,-12.68232 4.1501,-4.8814 7.078,-9.19974 12.856,-13.86112 6.9572,11.42344 11.2587,33.60483 9.8586,43.54663 -3.0029,-0.6348 -5.3828,-0.71018 -9.3733,-1.08313 12.9359,-9.65363 4.7668,-25.37007 -0.586,-24.88791 z"
       id="path4080"
       inkscape:connector-curvature="0"
       sodipodi:nodetypes="csccccc" />
    <path
       style="fill:#e0ddc6;stroke:none"
       d="m 1935.3756,697.40036 c 0,-12.9963 0,-15.58171 0,-26.66854 3.2212,3.47351 5.663,7.92061 5.9336,14.39273 -0.361,7.05844 -3.7568,10.77142 -5.9336,12.27581 z"
       id="path4082"
       inkscape:connector-curvature="0"
       sodipodi:nodetypes="cccc" />
    <path
       sodipodi:nodetypes="cccc"
       inkscape:connector-curvature="0"
       id="path4084"
       d="m 1935.3756,712.62185 c 0,2.3203 0,7.8099 0,10.2969 1.9275,-1.4081 3.3809,-1.3763 5.2281,-1.6226 -2.544,-2.4491 -4.1037,-4.49679 -5.2281,-8.6743 z"
       style="fill:#e0ddc6;stroke:none" />
    <path
       sodipodi:nodetypes="cccc"
       inkscape:connector-curvature="0"
       id="path4086"
       d="m 1935.3756,638.01803 c 0,-12.9963 0,-11.23092 0,-22.31775 2.724,5.77321 6.5953,10.90401 10.4087,14.64135 -3.2201,1.40241 -7.859,4.24523 -10.4087,7.6764 z"
       style="fill:#e0ddc6;stroke:none" />
    <path
       style="fill:#e0ddc6;stroke:none"
       d="m 1935.3756,539.83326 c 0,2.3203 0,8.80705 0,11.29405 1.1605,-2.09844 1.6167,-2.91038 2.6969,-3.92371 -1.3935,-1.83547 -1.8026,-3.95988 -2.6969,-7.37034 z"
       id="path4088"
       inkscape:connector-curvature="0"
       sodipodi:nodetypes="cccc" />
    <path
       style="fill:#e0ddc6;stroke:none"
       d="m 1981.8792,487.55348 c 6.6023,7.13957 22.8925,4.66683 24.7648,-11.07436 2.8432,10.60345 15.5822,14.64086 24.8021,14.90795 2.3978,0.19389 2.8843,2.44625 -0.3374,2.90286 -10.9518,-3.60571 -24.2086,0.4951 -30.9776,4.55053 -7.0656,4.2331 -11.6069,3.99607 -20.5275,5.52829 8.7289,16.92267 42.0502,24.80982 57.5277,-0.35446 1.5932,-3.10444 4.6876,-1.00578 2.0448,2.05177 -8.0392,13.66554 5.086,22.59035 11.9482,23.86745 -10.6814,3.25153 -23.7132,8.45676 -28.2188,13.0102 -18.3346,-8.66621 -15.4889,-20.69162 -32.0827,-22.39993 -4.7407,20.01519 -26.4573,-10.52893 -8.9436,-32.9903 z"
       id="path4090"
       inkscape:connector-curvature="0"
       sodipodi:nodetypes="ccccsccccccc" />
    <path
       sodipodi:nodetypes="cccsccc"
       inkscape:connector-curvature="0"
       id="path4092"
       d="m 2032.2727,416.72831 c 4.2246,0.53595 7.1132,1.13686 10.5727,0.89295 1.716,-9.88419 14.9483,-21.6471 32.7465,-19.8032 -4.3745,3.35845 -8.8331,6.9911 -7.7792,16.08522 1.6415,14.16512 -15.2683,13.31887 -13.1016,1.608 -5.2586,2.76814 -7.4024,8.70738 -6.0687,13.71137 -6.6953,-4.79634 -9.6016,-6.84929 -16.3697,-12.49434 z"
       style="fill:#e0ddc6;stroke:none" />
    <path
       sodipodi:nodetypes="cccccsccccccc"
       inkscape:connector-curvature="0"
       id="path4094"
       d="m 1935.3756,571.51456 c 0,-5.07084 2.8645,-13.28493 8.2287,-17.85064 10.2355,2.16751 19.3145,-3.71211 17.0447,-16.48898 -0.9852,-3.09066 -0.6151,-11.71662 4.9236,-15.27799 9.1712,27.72936 32.1867,29.39272 47.3711,28.81859 -4.4729,4.34571 -6.097,6.82679 -14.633,17.2139 -5.2295,6.36354 -23.5341,-0.42138 -13.7541,-13.90851 -4.9652,-5.31185 -24.6533,-3.75638 -26.6984,13.4869 -2.2353,-5.46042 -4.589,-8.6627 -6.7901,-9.87536 0.354,3.94714 -2.4237,7.71826 -7.4886,13.56006 -8.2039,6.63825 -8.2039,16.70267 -4.0701,21.69786 -1.2538,2.52467 -2.5593,4.04613 -4.1338,7.04977 0,-10.46525 0,-18.77485 0,-28.4256 z"
       style="fill:#e0ddc6;stroke:none" />
    <path
       style="fill:#e0ddc6;stroke:none"
       d="m 1944.2677,600.91268 c 6.9027,1.83188 21.922,-6.68233 20.2334,-20.70177 10.2355,8.20019 33.5702,11.72206 48.107,-11.38697 1.5817,-2.78763 5.3257,-1.80445 3.3396,1.63528 0.1449,0.0426 -15.6388,12.77221 -14.6464,25.65088 0.5422,7.03494 -5.055,17.13615 -14.0907,17.1403 13.5574,17.67193 52.2823,1.82664 38.1854,-32.13731 -1.1664,-3.47138 2.8763,-6.18699 3.2784,-2.28937 -2.77,24.478 21.4215,18.35396 17.2086,5.34194 -2.9447,-9.58468 -7.7781,-8.11179 -6.1557,-19.33586 3.7464,-16.77099 27.2784,-28.21653 43.5993,-23.34143 1.4111,-0.13466 -2.609,17.76772 -10.0663,25.05774 -6.5003,6.35447 -16.6574,3.20389 -14.6829,-8.47065 -15.1998,0.82193 -19.0302,18.13891 -8.9559,26.92006 6.6913,5.83243 20.8667,7.11305 26.449,-3.13155 1.2618,-0.91834 3.5694,0.5661 2.0947,2.50093 -4.8452,5.56322 -17.4641,12.08762 -25.3202,10.67666 1.8848,7.04034 2.9175,15.16121 -0.072,22.11489 8.5358,-3.67615 18.4647,-3.85537 24.0323,-2.53641 -1.5196,-4.06136 0.9776,-17.5706 7.8113,-27.30486 1.1109,-2.03828 2.693,-0.3996 2.3452,1.80203 -10.7754,15.45008 -4.7465,31.73661 -2.1781,37.32183 -6.0868,8.06494 -17.6027,13.3301 -26.7959,13.09421 -17.5353,-0.44996 -15.3883,-16.88037 -2.8645,-13.94758 -4.7192,-14.2603 -20.2052,-13.46267 -26.572,-7.54954 -4.1785,3.88067 -4.0021,10.13547 4.2253,15.18414 1.9664,2.04253 -0.5374,4.84262 -2.2883,2.57955 -7.4491,-17.06115 -41.4391,-18.84222 -50.1054,0.0547 -20.5088,-3.26565 -12.8557,-34.01733 9.5853,-24.37031 4.5985,-31.23864 -46.0765,-22.36428 -39.2477,9.60078 -4.4772,-3.3384 -8.3177,-13.33299 -6.4528,-20.17231 z"
       id="path4096"
       inkscape:connector-curvature="0"
       sodipodi:nodetypes="ccccsccccccscsccccccccscccccccc" />
    <path
       style="fill:#e0ddc6;stroke:none"
       d="m 1999.8718,400.13044 c -3.8124,-3.53035 -7.0483,-6.45686 -13.0561,-9.05211 6.0078,-2.59525 9.2437,-5.52176 13.0561,-9.05211 -8.7955,2.91118 -27.0039,7.56254 -36.8034,9.05211 9.7995,1.48957 28.0079,6.14093 36.8034,9.05211 z"
       id="path4100"
       inkscape:connector-curvature="0"
       sodipodi:nodetypes="ccccc" />
  </g>
</svg>
