<?xml version='1.0' encoding='iso-8859-1'?>
<svg version="1.1" xmlns="http://www.w3.org/2000/svg" viewBox="0 0 282.443 282.443" xmlns:xlink="http://www.w3.org/1999/xlink" enable-background="new 0 0 282.443 282.443">
  <path style="fill:#304B71;" d="m282.442,141.222l-31.474-24.285c11.477-23.537 7.464-52.78-12.065-72.31-11.918-11.918-27.764-18.481-44.618-18.481-9.836,0-19.318,2.254-27.885,6.487l-25.179-32.633-25.179,32.633c-8.566-4.234-18.049-6.487-27.885-6.487-16.854,0-32.7,6.563-44.617,18.481-11.919,11.918-18.482,27.764-18.482,44.617 0,9.767 2.221,19.188 6.397,27.707l-31.453,24.27 31.454,24.27c-4.176,8.52-6.397,17.94-6.397,27.708 0,16.854 6.563,32.699 18.481,44.617 11.917,11.918 27.763,18.481 44.617,18.481 9.836,0 19.319-2.254 27.885-6.487l25.179,32.633 25.18-32.633c8.567,4.234 18.049,6.487 27.885,6.487 16.854,0 32.7-6.563 44.618-18.481 19.528-19.529 23.542-48.773 12.065-72.309l31.473-24.285zm-107.846,0l35.555-17.888 23.183,17.888-23.184,17.888-35.554-17.888zm19.69-85.061c8.475,0 16.952,3.227 23.404,9.679 8.657,8.657 11.497,20.954 8.538,32.008l-12.697-9.797-38.518,19.378 19.379-38.518-8.922-11.563c2.881-0.791 5.848-1.187 8.816-1.187zm-35.177,16.131l-17.889,35.555-17.888-35.555 17.888-23.183 17.889,23.183zm-110.001,68.93l23.183-17.889 35.555,17.889-35.555,17.888-23.183-17.888zm5.95-51.978c0-8.841 3.442-17.152 9.694-23.404s14.563-9.694 23.404-9.694c3.025,0 5.987,0.407 8.826,1.188l-8.932,11.577 19.378,38.518-38.518-19.379-12.718,9.813c-0.744-2.776-1.134-5.667-1.134-8.619zm33.098,137.054c-8.841,0-17.152-3.442-23.404-9.694s-9.694-14.563-9.694-23.404c0-2.952 0.39-5.843 1.135-8.619l12.717,9.813 38.518-19.379-19.378,38.517 8.933,11.577c-2.84,0.782-5.802,1.189-8.827,1.189zm35.177-16.147l17.888-35.555 17.889,35.555-17.889,23.183-17.888-23.183zm94.357,6.453c-8.711,8.711-21.107,11.534-32.215,8.485l8.917-11.556-19.379-38.517 38.517,19.378 12.697-9.797c2.96,11.053 0.12,23.349-8.537,32.007z"/>
</svg>
